<mxfile host="65bd71144e">
    <diagram id="v_faEbYUU1BO0BciKGaT" name="ページ1">
        <mxGraphModel dx="878" dy="509" grid="1" gridSize="10" guides="1" tooltips="1" connect="1" arrows="1" fold="1" page="1" pageScale="1" pageWidth="827" pageHeight="1169" math="0" shadow="0">
            <root>
                <mxCell id="0"/>
                <mxCell id="1" parent="0"/>
                <mxCell id="34" value="" style="ellipse;shape=doubleEllipse;whiteSpace=wrap;html=1;fillColor=#1ba1e2;fontColor=#ffffff;strokeColor=#006EAF;" vertex="1" parent="1">
                    <mxGeometry x="495" y="250" width="145" height="80" as="geometry"/>
                </mxCell>
                <mxCell id="33" value="" style="ellipse;shape=doubleEllipse;whiteSpace=wrap;html=1;fillColor=#e51400;fontColor=#ffffff;strokeColor=#B20000;" vertex="1" parent="1">
                    <mxGeometry x="85" y="250" width="240" height="190" as="geometry"/>
                </mxCell>
                <mxCell id="32" value="" style="ellipse;shape=doubleEllipse;whiteSpace=wrap;html=1;fillColor=#e3c800;fontColor=#000000;strokeColor=#B09500;" vertex="1" parent="1">
                    <mxGeometry x="537.5" y="580" width="185" height="120" as="geometry"/>
                </mxCell>
                <mxCell id="31" value="" style="ellipse;shape=doubleEllipse;whiteSpace=wrap;html=1;fillColor=#e3c800;fontColor=#000000;strokeColor=#B09500;" vertex="1" parent="1">
                    <mxGeometry x="315" y="570" width="185" height="120" as="geometry"/>
                </mxCell>
                <mxCell id="30" value="" style="ellipse;shape=doubleEllipse;whiteSpace=wrap;html=1;fillColor=#008a00;fontColor=#ffffff;strokeColor=#005700;" vertex="1" parent="1">
                    <mxGeometry x="410" y="440" width="220" height="83" as="geometry"/>
                </mxCell>
                <mxCell id="4" value="" style="shape=image;verticalLabelPosition=bottom;verticalAlign=top;imageAspect=0;aspect=fixed;image=data:image/png,iVBORw0KGgoAAAANSUhEUgAAAgAAAAIACAYAAAD0eNT6AAAACXBIWXMAAA/fAAAP3wHyuVZaAAAKvUlEQVR4nO3ZwW0bORiAUWqhQtxJvJ2kCx4tH9mFO4nTiTuZhYGctDkk2VnM2N97BdDET3n0iXPZtm0AAC1/OW8A6BEAABAkAAAgSAAAQJAAAIAgAQAAQQIAAIIEAAAECQAACBIAABAkAAAgSAAAQJAAAIAgAQAAQQIAAIIEAAAECQAACBIAABAkAAAgSAAAQJAAAIAgAQAAQQIAAIIEAAAECQAACBIAABAkAAAgSAAAQJAAAIAgAQAAQQIAAIIEAAAECQAACBIAABAkAAAgSAAAQJAAAIAgAQAAQQIAAIIEAAAECQAACBIAABAkAAAgSAAAQJAAAIAgAQAAQQIAAIIEAAAECQAACBIAABAkAAAgSAAAQJAAAIAgAQAAQQIAAIIEAAAECQAACBIAABAkAAAgSAAAQJAAAIAgAQAAQQIAAIIEAAAECQAACBIAABAkAAAgSAAAQJAAAIAgAQAAQQIAAIIEAAAECQAACBIAABAkAAAgSAAAQJAAAIAgAQAAQQIAAIIEAAAECQAACBIAABAkAAAgSAAAQJAAAIAgAQAAQQIAAIIEAAAECQAACBIAABAkAAAgSAAAQJAAAIAgAQAAQQIAAIIEAAAECQAACBIAABAkAAAgSAAAQNDVoXMma63HMcbjnluac972XG+ttet6Y4y3OefLXouttR7GGF/3Wu+Hlznn216LrbXe9/ew13rjY5zz65zzdec14Y8JAM7m/cv/aec97f0g33t/39+/YHdc7+F/2OP7F9duAfAjUL7suN74AOc8fswRTsErAAAIEgAAECQAACBIAABAkAAAgCABAABBAgAAggQAAAQJAAAIEgAAECQAACBIAABAkAAAgCABAABBAgAAggQAAAQJAAAIEgAAECQAACBIAABAkAAAgCABAABBAgAAggQAAAQJAAAIEgAAECQAACBIAABAkAAAgCABAABBAgAAgi7btjl3/mWt5YMBn8Sc8+IsuecGAACCBAAABAkAAAgSAAAQJAAAIEgAAECQAACAIAEAAEECAACCBAAABAkAAAgSAAAQJAAAIEgAAECQAACAIAEAAEECAACCBAAABAkAAAgSAAAQJAAAIEgAAECQAACAIAEAAEECAACCBAAABAkAAAgSAAAQJAAAIOiybZtzP5m11uMY4/HgXT2dbjDAn3o+eHKvc87Xg/fAnauBnNKjL2BgR2d4ngiAk/EKAACCBAAABAkAAAgSAAAQJAAAIEgAAECQAACAIAEAAEECAACCBAAABAkAAAgSAAAQJAAAIEgAAECQAACAIAEAAEECAACCrg6dz2rOeXG4/Fdrrc0Q+YzcAABAkBuAE5pz3sYYtyN35lcPfB5uw/gZNwAAECQAACBIAABAkAAAgCABAABBAgAAggQAAAQJAAAIEgAAECQAACBIAABAkAAAgCABAABBAgAAggQAAAQJAAAIEgAAEHR16PBr1lqbUZ3fnPNSnwH8CjcAABDkBuCE1lq3McZTfQ7APk5we/U857wdvAfuuAEAgCABAABBAgAAggQAAAQJAAAIEgAAECQAACBIAABAkAAAgCABAABBAgAAggQAAAQJAAAIEgAAECQAACBIAABAkAAAgCABAABBAgAAgq4O/ZTexhjfD97Yl5POBvh9Rz9P3g7++/yEADihOefLGOPlyJ2ttbazzgf4PXPORyPjnlcAABAkAAAgSAAAQJAAAIAgAQAAQQIAAIIEAAAECQAACBIAABAkAAAgSAAAQJAAAIAgAQAAQQIAAIIEAAAECQAACBIAABAkAAAg6OrQz2et9TDGeKjPAdjHWuvx4FG+zTnfDt4DdwTAOX0dYzzVhwDs5tvBo3weY9wO3gN3vAIAgCABAABBAgAAggQAAAQJAAAIEgAAECQAACBIAABAkAAAgCABAABBAgAAggQAAAQJAAAIEgAAECQAACBIAABAkAAAgCABAABBAgAAgq4O/ZRexhivB2/s20lnA/y+vw+e2dvBf5+fEAAnNOd8O/ofZq111vEAv2nOefQPCk7IKwAACBIAABAkAAAgSAAAQJAAAIAgAQAAQQIAAIIEAAAECQAACBIAABAkAAAgSAAAQJAAAIAgAQAAQQIAAIIEAAAECQAACBIAABB0dejns9b6Osb4Wp8DsI+11uvBo3yZc74cvAfuCIBzehhjfKkPAdjN0c+TowOEn/AKAACCBAAABAkAAAgSAAAQJAAAIEgAAECQAACAIAEAAEECAACCBAAABAkAAAgSAAAQJAAAIEgAAECQAACAIAEAAEECAACCBAAABAkAAAi6OvTzmXPexhi3Ize21tpOOh7gN805L2bGPTcAABDkBgB+kV9RwGfiBgAAggQAAAQJAAAIEgAAECQAACBIAABAkAAAgCABAABBAgAAggQAAAQJAAAIEgAAECQAACBIAABAkAAAgCABAABBAgAAgq4O/XzWWrcxxlN9DsA+1lrbwaN8nnPeDt4Dd9wAAECQGwA+rRP86gE4LTcAABAkAAAgSAAAQJAAAIAgAQAAQQIAAIIEAAAECQAACBIAABAkAAAgSAAAQJAAAIAgAQAAQQIAAIIEAAAECQAACBIAABB0dein9HqCTT2dYA/APp4PnuMZnmncuWzbZib8y1rLBwM+iTnnxVlyzysAAAgSAAAQJAAAIEgAAECQAACAIAEAAEECAACCBAAABAkAAAgSAAAQJAAAIEgAAECQAACAIAEAAEECAACCBAAABAkAAAgSAAAQJAAAIEgAAECQAACAIAEAAEECAACCBAAABAkAAAgSAAAQJAAAIEgAAECQAACAoMu2bc6d01hr3cYYT3vuZ8552XO9tdbe/zTf55yPey221npf69te6/3w95zzda/F1lrva33Za73xMc75ec5523lN+GNuAAAgSAAAQJAAAIAgAQAAQQIAAIIEAAAECQAACBIAABAkAAAgSAAAQJAAAIAgAQAAQQIAAIIEAAAECQAACBIAABAkAAAgSAAAQJAAAIAgAQAAQQIAAIIEAAAECQAACBIAABAkAAAgSAAAQJAAAIAgAQAAQQIAAIIEAAAECQAACLo6dE7m9QMcyPPO6739D+udfY8vH+Cs957hR/hsE3LZts15A0CMVwAAECQAACBIAABAkAAAgCABAABBAgAAggQAAAQJAAAIEgAAECQAACBIAABAkAAAgCABAABBAgAAggQAAAQJAAAIEgAAECQAACBIAABAkAAAgCABAABBAgAAggQAAAQJAAAIEgAAECQAACBIAABAkAAAgCABAABBAgAAggQAAAQJAAAIEgAAECQAACBIAABAkAAAgCABAABBAgAAggQAAAQJAAAIEgAAECQAACBIAABAkAAAgCABAABBAgAAggQAAAQJAAAIEgAAECQAACBIAABAkAAAgCABAABBAgAAggQAAAQJAAAIEgAAECQAACBIAABAkAAAgCABAABBAgAAggQAAAQJAAAIEgAAECQAACBIAABAkAAAgCABAABBAgAAggQAAAQJAAAIEgAAECQAACBIAABAkAAAgCABAABBAgAAggQAAAQJAAAIEgAAECQAACBIAABAkAAAgCABAABBAgAAggQAAAQJAAAIEgAAECQAACBIAABAkAAAgCABAABBAgAAggQAAAQJAAAIEgAAECQAACBIAABAkAAAgJoxxj+fJLQL3SHk7AAAAABJRU5ErkJggg==" vertex="1" parent="1">
                    <mxGeometry x="560" y="250" width="70" height="70" as="geometry"/>
                </mxCell>
                <mxCell id="5" value="" style="shape=image;verticalLabelPosition=bottom;verticalAlign=top;imageAspect=0;aspect=fixed;image=data:image/png,iVBORw0KGgoAAAANSUhEUgAAAgAAAAIACAYAAAD0eNT6AAAAGXRFWHRTb2Z0d2FyZQBBZG9iZSBJbWFnZVJlYWR5ccllPAAAA3ZpVFh0WE1MOmNvbS5hZG9iZS54bXAAAAAAADw/eHBhY2tldCBiZWdpbj0i77u/IiBpZD0iVzVNME1wQ2VoaUh6cmVTek5UY3prYzlkIj8+IDx4OnhtcG1ldGEgeG1sbnM6eD0iYWRvYmU6bnM6bWV0YS8iIHg6eG1wdGs9IkFkb2JlIFhNUCBDb3JlIDUuNi1jMTExIDc5LjE1ODMyNSwgMjAxNS8wOS8xMC0wMToxMDoyMCAgICAgICAgIj4gPHJkZjpSREYgeG1sbnM6cmRmPSJodHRwOi8vd3d3LnczLm9yZy8xOTk5LzAyLzIyLXJkZi1zeW50YXgtbnMjIj4gPHJkZjpEZXNjcmlwdGlvbiByZGY6YWJvdXQ9IiIgeG1sbnM6eG1wTU09Imh0dHA6Ly9ucy5hZG9iZS5jb20veGFwLzEuMC9tbS8iIHhtbG5zOnN0UmVmPSJodHRwOi8vbnMuYWRvYmUuY29tL3hhcC8xLjAvc1R5cGUvUmVzb3VyY2VSZWYjIiB4bWxuczp4bXA9Imh0dHA6Ly9ucy5hZG9iZS5jb20veGFwLzEuMC8iIHhtcE1NOk9yaWdpbmFsRG9jdW1lbnRJRD0ieG1wLmRpZDowMjE0NTc3Zi04MmQ2LTA4NGQtYTlmMS1kMDc0M2FiYjA1OGQiIHhtcE1NOkRvY3VtZW50SUQ9InhtcC5kaWQ6OTQ4RDJGMzRCRjVFMTFFNTg0MEVEQkU2REM3QTkxQUQiIHhtcE1NOkluc3RhbmNlSUQ9InhtcC5paWQ6OTQ4RDJGMzNCRjVFMTFFNTg0MEVEQkU2REM3QTkxQUQiIHhtcDpDcmVhdG9yVG9vbD0iQWRvYmUgUGhvdG9zaG9wIENDIDIwMTUgKFdpbmRvd3MpIj4gPHhtcE1NOkRlcml2ZWRGcm9tIHN0UmVmOmluc3RhbmNlSUQ9InhtcC5paWQ6MDIxNDU3N2YtODJkNi0wODRkLWE5ZjEtZDA3NDNhYmIwNThkIiBzdFJlZjpkb2N1bWVudElEPSJ4bXAuZGlkOjAyMTQ1NzdmLTgyZDYtMDg0ZC1hOWYxLWQwNzQzYWJiMDU4ZCIvPiA8L3JkZjpEZXNjcmlwdGlvbj4gPC9yZGY6UkRGPiA8L3g6eG1wbWV0YT4gPD94cGFja2V0IGVuZD0iciI/PpNX8NsAAAe+SURBVHja7NzBbYNAFEXREE0BKSElpAS7JK/4O3v5y3AnUAIluAR3QNhm4SiRMB4x50goOyIelnyVkdLN8/wGALSlEwAAIAAAAAEAAAgAAEAAAAACAAAQAACAAAAABAAAIAAAAAEAAAgAAEAAAAACAAAQAACAAAAABAAAIAAAQAAAAAIAABAAAIAAAAAEAAAgAAAAAQAACAAAQAAAAAIAABAAAIAAAAAEAAAgAAAAAQAACAAAQAAAgAAAAAQAACAAAAABAAAIAABAAAAAAgAAEAAAgAAAAAQAACAAAAABAAAIAABAAAAAAgAAEAAAgAAAAAEAAAgAAEAAAAACAAAQAACAAAAABAAAIAAAAAEAAAgAAEAAAAACAAAQAACAAAAABAAAIAAAAAEAAALACgAgAAAAAQAACAAAQAAAAAIAABAAAIAAAAAEAAAgAAAAAQAACAAAQAAAAAIAABAAAIAAAAAEAAAIAAHAbj7MXWcEfsjMYflxWPGWY9/3R8uyB+8mAAABAAAIAABAAAAAAgAAEAAAgAAAAAQAACAAAAABAAAIAABAAAAAAgAAEAAAgAAAAAQAACAAAAABAAACAAAQAACAAAAABAAAIAAAAAEAAAgAAEAAAAACAAAQAACAAAAABAAAIAAAAAEAAAgAAEAAAAACAAAEAAAgAAAAAQAACAAAQAAAAAIAABAAAIAAAAAEAAAgAAAAAQAACAAAQAAAAAIAABAAAIAAAAAEAAAIAABAAAAAAgAAEAAAgAAAAAQAACAAAAABAAAIAABAAAAAAgAAEAAAgAAAAAQAACAAAAABAAAIAAAQAABAY4oJ2IvMvFihSreIuJoBBAA8y9kEVRqXSwBAZRwBAIAAAAAEAAAgAAAAAQAACAAAQAAAAAIAABAAAIAAAAAEAAAgAAAAAQAACAAAQAAAAAIAABAAAIAAAAABAAA0opgAHpqW69Tgcw9ePQgAaNk9IsbWHjozvXlogCMAABAAAIAAAAAEAAAgAAAAAQAACAAAQAAAAAIAABAAAIAAAAAEAAAgAAAAAQAACAAAQAAAAAIAABAAACAAAAABAAAIAABAAAAAAgAAEAAAgAAAAAQAACAAAAABAAAIAABAAAAAAgAAEAAAgAAAAAQAACAAAEAAAAACAAAQAACAAAAABAAAIAAAAAEAAAgAAEAAAAACAAAQAACAAAAABAAAIAAAAAEAAAgAAEAAAIAAAAAEAAAgAAAAAQAACAAAQAAAAAIAAKhQMQHwZJ+ZeXnV7zY/CADgdV/CZzNAXRwBAIAAAAAEAAAgAAAAAQAACAAAQAAAAAIAABAAAIAAAAAEAAAgAAAAAQAACAAAQAAAAAIAABAAAIAAAAABAAA0opgAeLJpuU47eZa714kAAPjjl2ZEjHt5mL7vvVF2wREAAAgAAEAAAAACAAAQAACAAAAABAAAIAAAAAEAAAgAAEAAAAACAAAQAACAAAAABAAAIAAAAAEAAAgAABAAAIAAAAAEAAAgAAAAAQAACAAAQAAAAAIAABAAAIAAAAAEAAAgAAAAAQAACAAAQAAAAAIAABAAACAAAAABAAAIAABAAAAAAgAAEAAAgAAAAAQAACAAAAABAAAIAABAAAAAAgAAEAAAgAAAAAQAACAAAEAAAAACAAAQAACAAAAABAAAIAAAAAEAAAgAAEAAAAACAAAQAACAAAAABAAAIAAAAAEAAPyimAC2k5mXlW95i4irZQEBAHU7r3y/cbkEAPBvjgAAQAAAAAIAABAAAIAAAAAEAAAgAAAAAQAACAAAQAAAAAIAABAAAIAAAAAEAAAgAAAAAQAACAAAQAAAgAAAABpRTACbOq58v7tJAQEAlYuI0QpADRwBAIAAAAAEAAAgAAAAAQAACAAAQAAAAAIAABAAAIAAAAC25F8Bw4Yyc1j5llNEnCwLCACo28EEQA0cAQCAAAAABAAAIAAAAAEAAAgAAEAAAAACAAAQAACAAAAABAAAIAAAAAEAAAgAAEAAAAACAAAQAACAAAAAAQAANKKYALYTEZ0VAH8BAAAEAAAgAAAAAQAACAAAQAAAAAIAABAAAIAAAAABAAAIAABAAAAAAgAAEAAAgAAAAAQAACAAAAABAAAIAABgM8UE8NBXZg5mAAQAtOVjuQ5mAPbIEQAACAAAQAAAAAIAABAAAIAAAAAEAAAgAAAAAQAACAAAQAAAAAIAABAAAIAAAAAEAAAgAAAAAQAACAAAEAAAQCO6eZ6tAAACAAAQAACAAAAABAAAIAAAAAEAAAgAAEAAAAACAAAQAACAAAAABAAAIAAAAAEAAAgAAEAAAIAAEAAAIAAAAAEAAAgAAEAAAAACAAAQAACAAAAABAAAIAAAAAEAAAgAAEAAAAACAAAQAACAAAAABAAAIAAAQAAAAAIAABAAAIAAAAAEAAAgAAAAAQAACAAAQAAAAAIAABAAAIAAAAAEAAAgAAAAAQAACAAAQAAAgAAAAAQAACAAAAABAAAIAABAAAAAAgAAEAAAgAAAAAQAACAAAAABAAAIAABAAAAAAgAAEAAAgAAAAAEAAAgAAEAAAAACAAAQAACAAAAABAAAIAAAAAEAAAgAAEAAAAACAAAQAACAAAAABAAAIAAAAAEAAALACgDQmG8BBgC0rD5xXt71agAAAABJRU5ErkJggg==" vertex="1" parent="1">
                    <mxGeometry x="510" y="250" width="60" height="60" as="geometry"/>
                </mxCell>
                <mxCell id="8" value="" style="shape=image;verticalLabelPosition=bottom;verticalAlign=top;imageAspect=0;aspect=fixed;image=data:image/png,iVBORw0KGgoAAAANSUhEUgAAAgAAAAIACAYAAAD0eNT6AAAACXBIWXMAAA/fAAAP3wHyuVZaAAAKvUlEQVR4nO3ZwW0bORiAUWqhQtxJvJ2kCx4tH9mFO4nTiTuZhYGctDkk2VnM2N97BdDET3n0iXPZtm0AAC1/OW8A6BEAABAkAAAgSAAAQJAAAIAgAQAAQQIAAIIEAAAECQAACBIAABAkAAAgSAAAQJAAAIAgAQAAQQIAAIIEAAAECQAACBIAABAkAAAgSAAAQJAAAIAgAQAAQQIAAIIEAAAECQAACBIAABAkAAAgSAAAQJAAAIAgAQAAQQIAAIIEAAAECQAACBIAABAkAAAgSAAAQJAAAIAgAQAAQQIAAIIEAAAECQAACBIAABAkAAAgSAAAQJAAAIAgAQAAQQIAAIIEAAAECQAACBIAABAkAAAgSAAAQJAAAIAgAQAAQQIAAIIEAAAECQAACBIAABAkAAAgSAAAQJAAAIAgAQAAQQIAAIIEAAAECQAACBIAABAkAAAgSAAAQJAAAIAgAQAAQQIAAIIEAAAECQAACBIAABAkAAAgSAAAQJAAAIAgAQAAQQIAAIIEAAAECQAACBIAABAkAAAgSAAAQJAAAIAgAQAAQQIAAIIEAAAECQAACBIAABAkAAAgSAAAQJAAAIAgAQAAQQIAAIIEAAAECQAACBIAABAkAAAgSAAAQNDVoXMma63HMcbjnluac972XG+ttet6Y4y3OefLXouttR7GGF/3Wu+Hlznn216LrbXe9/ew13rjY5zz65zzdec14Y8JAM7m/cv/aec97f0g33t/39+/YHdc7+F/2OP7F9duAfAjUL7suN74AOc8fswRTsErAAAIEgAAECQAACBIAABAkAAAgCABAABBAgAAggQAAAQJAAAIEgAAECQAACBIAABAkAAAgCABAABBAgAAggQAAAQJAAAIEgAAECQAACBIAABAkAAAgCABAABBAgAAggQAAAQJAAAIEgAAECQAACBIAABAkAAAgCABAABBAgAAgi7btjl3/mWt5YMBn8Sc8+IsuecGAACCBAAABAkAAAgSAAAQJAAAIEgAAECQAACAIAEAAEECAACCBAAABAkAAAgSAAAQJAAAIEgAAECQAACAIAEAAEECAACCBAAABAkAAAgSAAAQJAAAIEgAAECQAACAIAEAAEECAACCBAAABAkAAAgSAAAQJAAAIOiybZtzP5m11uMY4/HgXT2dbjDAn3o+eHKvc87Xg/fAnauBnNKjL2BgR2d4ngiAk/EKAACCBAAABAkAAAgSAAAQJAAAIEgAAECQAACAIAEAAEECAACCBAAABAkAAAgSAAAQJAAAIEgAAECQAACAIAEAAEECAACCrg6dz2rOeXG4/Fdrrc0Q+YzcAABAkBuAE5pz3sYYtyN35lcPfB5uw/gZNwAAECQAACBIAABAkAAAgCABAABBAgAAggQAAAQJAAAIEgAAECQAACBIAABAkAAAgCABAABBAgAAggQAAAQJAAAIEgAAEHR16PBr1lqbUZ3fnPNSnwH8CjcAABDkBuCE1lq3McZTfQ7APk5we/U857wdvAfuuAEAgCABAABBAgAAggQAAAQJAAAIEgAAECQAACBIAABAkAAAgCABAABBAgAAggQAAAQJAAAIEgAAECQAACBIAABAkAAAgCABAABBAgAAgq4O/ZTexhjfD97Yl5POBvh9Rz9P3g7++/yEADihOefLGOPlyJ2ttbazzgf4PXPORyPjnlcAABAkAAAgSAAAQJAAAIAgAQAAQQIAAIIEAAAECQAACBIAABAkAAAgSAAAQJAAAIAgAQAAQQIAAIIEAAAECQAACBIAABAkAAAg6OrQz2et9TDGeKjPAdjHWuvx4FG+zTnfDt4DdwTAOX0dYzzVhwDs5tvBo3weY9wO3gN3vAIAgCABAABBAgAAggQAAAQJAAAIEgAAECQAACBIAABAkAAAgCABAABBAgAAggQAAAQJAAAIEgAAECQAACBIAABAkAAAgCABAABBAgAAgq4O/ZRexhivB2/s20lnA/y+vw+e2dvBf5+fEAAnNOd8O/ofZq111vEAv2nOefQPCk7IKwAACBIAABAkAAAgSAAAQJAAAIAgAQAAQQIAAIIEAAAECQAACBIAABAkAAAgSAAAQJAAAIAgAQAAQQIAAIIEAAAECQAACBIAABB0dejns9b6Osb4Wp8DsI+11uvBo3yZc74cvAfuCIBzehhjfKkPAdjN0c+TowOEn/AKAACCBAAABAkAAAgSAAAQJAAAIEgAAECQAACAIAEAAEECAACCBAAABAkAAAgSAAAQJAAAIEgAAECQAACAIAEAAEECAACCBAAABAkAAAi6OvTzmXPexhi3Ize21tpOOh7gN805L2bGPTcAABDkBgB+kV9RwGfiBgAAggQAAAQJAAAIEgAAECQAACBIAABAkAAAgCABAABBAgAAggQAAAQJAAAIEgAAECQAACBIAABAkAAAgCABAABBAgAAgq4O/XzWWrcxxlN9DsA+1lrbwaN8nnPeDt4Dd9wAAECQGwA+rRP86gE4LTcAABAkAAAgSAAAQJAAAIAgAQAAQQIAAIIEAAAECQAACBIAABAkAAAgSAAAQJAAAIAgAQAAQQIAAIIEAAAECQAACBIAABB0dein9HqCTT2dYA/APp4PnuMZnmncuWzbZib8y1rLBwM+iTnnxVlyzysAAAgSAAAQJAAAIEgAAECQAACAIAEAAEECAACCBAAABAkAAAgSAAAQJAAAIEgAAECQAACAIAEAAEECAACCBAAABAkAAAgSAAAQJAAAIEgAAECQAACAIAEAAEECAACCBAAABAkAAAgSAAAQJAAAIEgAAECQAACAoMu2bc6d01hr3cYYT3vuZ8552XO9tdbe/zTf55yPey221npf69te6/3w95zzda/F1lrva33Za73xMc75ec5523lN+GNuAAAgSAAAQJAAAIAgAQAAQQIAAIIEAAAECQAACBIAABAkAAAgSAAAQJAAAIAgAQAAQQIAAIIEAAAECQAACBIAABAkAAAgSAAAQJAAAIAgAQAAQQIAAIIEAAAECQAACBIAABAkAAAgSAAAQJAAAIAgAQAAQQIAAIIEAAAECQAACLo6dE7m9QMcyPPO6739D+udfY8vH+Cs957hR/hsE3LZts15A0CMVwAAECQAACBIAABAkAAAgCABAABBAgAAggQAAAQJAAAIEgAAECQAACBIAABAkAAAgCABAABBAgAAggQAAAQJAAAIEgAAECQAACBIAABAkAAAgCABAABBAgAAggQAAAQJAAAIEgAAECQAACBIAABAkAAAgCABAABBAgAAggQAAAQJAAAIEgAAECQAACBIAABAkAAAgCABAABBAgAAggQAAAQJAAAIEgAAECQAACBIAABAkAAAgCABAABBAgAAggQAAAQJAAAIEgAAECQAACBIAABAkAAAgCABAABBAgAAggQAAAQJAAAIEgAAECQAACBIAABAkAAAgCABAABBAgAAggQAAAQJAAAIEgAAECQAACBIAABAkAAAgCABAABBAgAAggQAAAQJAAAIEgAAECQAACBIAABAkAAAgCABAABBAgAAggQAAAQJAAAIEgAAECQAACBIAABAkAAAgCABAABBAgAAggQAAAQJAAAIEgAAECQAACBIAABAkAAAgCABAABBAgAAggQAAAQJAAAIEgAAECQAACBIAABAkAAAgJoxxj+fJLQL3SHk7AAAAABJRU5ErkJggg==;imageBackground=none;" vertex="1" parent="1">
                    <mxGeometry x="510" y="452" width="70" height="70" as="geometry"/>
                </mxCell>
                <mxCell id="9" value="" style="shape=image;verticalLabelPosition=bottom;verticalAlign=top;imageAspect=0;aspect=fixed;image=data:image/png,iVBORw0KGgoAAAANSUhEUgAAAgAAAAIACAYAAAD0eNT6AAAAGXRFWHRTb2Z0d2FyZQBBZG9iZSBJbWFnZVJlYWR5ccllPAAAA3ZpVFh0WE1MOmNvbS5hZG9iZS54bXAAAAAAADw/eHBhY2tldCBiZWdpbj0i77u/IiBpZD0iVzVNME1wQ2VoaUh6cmVTek5UY3prYzlkIj8+IDx4OnhtcG1ldGEgeG1sbnM6eD0iYWRvYmU6bnM6bWV0YS8iIHg6eG1wdGs9IkFkb2JlIFhNUCBDb3JlIDUuNi1jMTExIDc5LjE1ODMyNSwgMjAxNS8wOS8xMC0wMToxMDoyMCAgICAgICAgIj4gPHJkZjpSREYgeG1sbnM6cmRmPSJodHRwOi8vd3d3LnczLm9yZy8xOTk5LzAyLzIyLXJkZi1zeW50YXgtbnMjIj4gPHJkZjpEZXNjcmlwdGlvbiByZGY6YWJvdXQ9IiIgeG1sbnM6eG1wTU09Imh0dHA6Ly9ucy5hZG9iZS5jb20veGFwLzEuMC9tbS8iIHhtbG5zOnN0UmVmPSJodHRwOi8vbnMuYWRvYmUuY29tL3hhcC8xLjAvc1R5cGUvUmVzb3VyY2VSZWYjIiB4bWxuczp4bXA9Imh0dHA6Ly9ucy5hZG9iZS5jb20veGFwLzEuMC8iIHhtcE1NOk9yaWdpbmFsRG9jdW1lbnRJRD0ieG1wLmRpZDowMjE0NTc3Zi04MmQ2LTA4NGQtYTlmMS1kMDc0M2FiYjA1OGQiIHhtcE1NOkRvY3VtZW50SUQ9InhtcC5kaWQ6OTQ4RDJGMzRCRjVFMTFFNTg0MEVEQkU2REM3QTkxQUQiIHhtcE1NOkluc3RhbmNlSUQ9InhtcC5paWQ6OTQ4RDJGMzNCRjVFMTFFNTg0MEVEQkU2REM3QTkxQUQiIHhtcDpDcmVhdG9yVG9vbD0iQWRvYmUgUGhvdG9zaG9wIENDIDIwMTUgKFdpbmRvd3MpIj4gPHhtcE1NOkRlcml2ZWRGcm9tIHN0UmVmOmluc3RhbmNlSUQ9InhtcC5paWQ6MDIxNDU3N2YtODJkNi0wODRkLWE5ZjEtZDA3NDNhYmIwNThkIiBzdFJlZjpkb2N1bWVudElEPSJ4bXAuZGlkOjAyMTQ1NzdmLTgyZDYtMDg0ZC1hOWYxLWQwNzQzYWJiMDU4ZCIvPiA8L3JkZjpEZXNjcmlwdGlvbj4gPC9yZGY6UkRGPiA8L3g6eG1wbWV0YT4gPD94cGFja2V0IGVuZD0iciI/PpNX8NsAAAe+SURBVHja7NzBbYNAFEXREE0BKSElpAS7JK/4O3v5y3AnUAIluAR3QNhm4SiRMB4x50goOyIelnyVkdLN8/wGALSlEwAAIAAAAAEAAAgAAEAAAAACAAAQAACAAAAABAAAIAAAAAEAAAgAAEAAAAACAAAQAACAAAAABAAAIAAAQAAAAAIAABAAAIAAAAAEAAAgAAAAAQAACAAAQAAAAAIAABAAAIAAAAAEAAAgAAAAAQAACAAAQAAAgAAAAAQAACAAAAABAAAIAABAAAAAAgAAEAAAgAAAAAQAACAAAAABAAAIAABAAAAAAgAAEAAAgAAAAAEAAAgAAEAAAAACAAAQAACAAAAABAAAIAAAAAEAAAgAAEAAAAACAAAQAACAAAAABAAAIAAAAAEAAALACgAgAAAAAQAACAAAQAAAAAIAABAAAIAAAAAEAAAgAAAAAQAACAAAQAAAAAIAABAAAIAAAAAEAAAIAAHAbj7MXWcEfsjMYflxWPGWY9/3R8uyB+8mAAABAAAIAABAAAAAAgAAEAAAgAAAAAQAACAAAAABAAAIAABAAAAAAgAAEAAAgAAAAAQAACAAAAABAAACAAAQAACAAAAABAAAIAAAAAEAAAgAAEAAAAACAAAQAACAAAAABAAAIAAAAAEAAAgAAEAAAAACAAAEAAAgAAAAAQAACAAAQAAAAAIAABAAAIAAAAAEAAAgAAAAAQAACAAAQAAAAAIAABAAAIAAAAAEAAAIAABAAAAAAgAAEAAAgAAAAAQAACAAAAABAAAIAABAAAAAAgAAEAAAgAAAAAQAACAAAAABAAAIAAAQAABAY4oJ2IvMvFihSreIuJoBBAA8y9kEVRqXSwBAZRwBAIAAAAAEAAAgAAAAAQAACAAAQAAAAAIAABAAAIAAAAAEAAAgAAAAAQAACAAAQAAAAAIAABAAAIAAAAABAAA0opgAHpqW69Tgcw9ePQgAaNk9IsbWHjozvXlogCMAABAAAIAAAAAEAAAgAAAAAQAACAAAQAAAAAIAABAAAIAAAAAEAAAgAAAAAQAACAAAQAAAAAIAABAAACAAAAABAAAIAABAAAAAAgAAEAAAgAAAAAQAACAAAAABAAAIAABAAAAAAgAAEAAAgAAAAAQAACAAAEAAAAACAAAQAACAAAAABAAAIAAAAAEAAAgAAEAAAAACAAAQAACAAAAABAAAIAAAAAEAAAgAAEAAAIAAAAAEAAAgAAAAAQAACAAAQAAAAAIAAKhQMQHwZJ+ZeXnV7zY/CADgdV/CZzNAXRwBAIAAAAAEAAAgAAAAAQAACAAAQAAAAAIAABAAAIAAAAAEAAAgAAAAAQAACAAAQAAAAAIAABAAAIAAAAABAAA0opgAeLJpuU47eZa714kAAPjjl2ZEjHt5mL7vvVF2wREAAAgAAEAAAAACAAAQAACAAAAABAAAIAAAAAEAAAgAAEAAAAACAAAQAACAAAAABAAAIAAAAAEAAAgAABAAAIAAAAAEAAAgAAAAAQAACAAAQAAAAAIAABAAAIAAAAAEAAAgAAAAAQAACAAAQAAAAAIAABAAACAAAAABAAAIAABAAAAAAgAAEAAAgAAAAAQAACAAAAABAAAIAABAAAAAAgAAEAAAgAAAAAQAACAAAEAAAAACAAAQAACAAAAABAAAIAAAAAEAAAgAAEAAAAACAAAQAACAAAAABAAAIAAAAAEAAPyimAC2k5mXlW95i4irZQEBAHU7r3y/cbkEAPBvjgAAQAAAAAIAABAAAIAAAAAEAAAgAAAAAQAACAAAQAAAAAIAABAAAIAAAAAEAAAgAAAAAQAACAAAQAAAgAAAABpRTACbOq58v7tJAQEAlYuI0QpADRwBAIAAAAAEAAAgAAAAAQAACAAAQAAAAAIAABAAAIAAAAC25F8Bw4Yyc1j5llNEnCwLCACo28EEQA0cAQCAAAAABAAAIAAAAAEAAAgAAEAAAAACAAAQAACAAAAABAAAIAAAAAEAAAgAAEAAAAACAAAQAACAAAAAAQAANKKYALYTEZ0VAH8BAAAEAAAgAAAAAQAACAAAQAAAAAIAABAAAIAAAAABAAAIAABAAAAAAgAAEAAAgAAAAAQAACAAAAABAAAIAABgM8UE8NBXZg5mAAQAtOVjuQ5mAPbIEQAACAAAQAAAAAIAABAAAIAAAAAEAAAgAAAAAQAACAAAQAAAAAIAABAAAIAAAAAEAAAgAAAAAQAACAAAEAAAQCO6eZ6tAAACAAAQAACAAAAABAAAIAAAAAEAAAgAAEAAAAACAAAQAACAAAAABAAAIAAAAAEAAAgAAEAAAIAAEAAAIAAAAAEAAAgAAEAAAAACAAAQAACAAAAABAAAIAAAAAEAAAgAAEAAAAACAAAQAACAAAAABAAAIAAAQAAAAAIAABAAAIAAAAAEAAAgAAAAAQAACAAAQAAAAAIAABAAAIAAAAAEAAAgAAAAAQAACAAAQAAAgAAAAAQAACAAAAABAAAIAABAAAAAAgAAEAAAgAAAAAQAACAAAAABAAAIAABAAAAAAgAAEAAAgAAAAAEAAAgAAEAAAAACAAAQAACAAAAABAAAIAAAAAEAAAgAAEAAAAACAAAQAACAAAAABAAAIAAAAAEAAALACgDQmG8BBgC0rD5xXt71agAAAABJRU5ErkJggg==" vertex="1" parent="1">
                    <mxGeometry x="467" y="440" width="60" height="60" as="geometry"/>
                </mxCell>
                <mxCell id="10" value="" style="shape=image;verticalLabelPosition=bottom;verticalAlign=top;imageAspect=0;aspect=fixed;image=data:image/png,iVBORw0KGgoAAAANSUhEUgAAAgAAAAIACAYAAAD0eNT6AAAACXBIWXMAAA/fAAAP3wHyuVZaAAAKvUlEQVR4nO3ZwW0bORiAUWqhQtxJvJ2kCx4tH9mFO4nTiTuZhYGctDkk2VnM2N97BdDET3n0iXPZtm0AAC1/OW8A6BEAABAkAAAgSAAAQJAAAIAgAQAAQQIAAIIEAAAECQAACBIAABAkAAAgSAAAQJAAAIAgAQAAQQIAAIIEAAAECQAACBIAABAkAAAgSAAAQJAAAIAgAQAAQQIAAIIEAAAECQAACBIAABAkAAAgSAAAQJAAAIAgAQAAQQIAAIIEAAAECQAACBIAABAkAAAgSAAAQJAAAIAgAQAAQQIAAIIEAAAECQAACBIAABAkAAAgSAAAQJAAAIAgAQAAQQIAAIIEAAAECQAACBIAABAkAAAgSAAAQJAAAIAgAQAAQQIAAIIEAAAECQAACBIAABAkAAAgSAAAQJAAAIAgAQAAQQIAAIIEAAAECQAACBIAABAkAAAgSAAAQJAAAIAgAQAAQQIAAIIEAAAECQAACBIAABAkAAAgSAAAQJAAAIAgAQAAQQIAAIIEAAAECQAACBIAABAkAAAgSAAAQJAAAIAgAQAAQQIAAIIEAAAECQAACBIAABAkAAAgSAAAQJAAAIAgAQAAQQIAAIIEAAAECQAACBIAABAkAAAgSAAAQNDVoXMma63HMcbjnluac972XG+ttet6Y4y3OefLXouttR7GGF/3Wu+Hlznn216LrbXe9/ew13rjY5zz65zzdec14Y8JAM7m/cv/aec97f0g33t/39+/YHdc7+F/2OP7F9duAfAjUL7suN74AOc8fswRTsErAAAIEgAAECQAACBIAABAkAAAgCABAABBAgAAggQAAAQJAAAIEgAAECQAACBIAABAkAAAgCABAABBAgAAggQAAAQJAAAIEgAAECQAACBIAABAkAAAgCABAABBAgAAggQAAAQJAAAIEgAAECQAACBIAABAkAAAgCABAABBAgAAgi7btjl3/mWt5YMBn8Sc8+IsuecGAACCBAAABAkAAAgSAAAQJAAAIEgAAECQAACAIAEAAEECAACCBAAABAkAAAgSAAAQJAAAIEgAAECQAACAIAEAAEECAACCBAAABAkAAAgSAAAQJAAAIEgAAECQAACAIAEAAEECAACCBAAABAkAAAgSAAAQJAAAIOiybZtzP5m11uMY4/HgXT2dbjDAn3o+eHKvc87Xg/fAnauBnNKjL2BgR2d4ngiAk/EKAACCBAAABAkAAAgSAAAQJAAAIEgAAECQAACAIAEAAEECAACCBAAABAkAAAgSAAAQJAAAIEgAAECQAACAIAEAAEECAACCrg6dz2rOeXG4/Fdrrc0Q+YzcAABAkBuAE5pz3sYYtyN35lcPfB5uw/gZNwAAECQAACBIAABAkAAAgCABAABBAgAAggQAAAQJAAAIEgAAECQAACBIAABAkAAAgCABAABBAgAAggQAAAQJAAAIEgAAEHR16PBr1lqbUZ3fnPNSnwH8CjcAABDkBuCE1lq3McZTfQ7APk5we/U857wdvAfuuAEAgCABAABBAgAAggQAAAQJAAAIEgAAECQAACBIAABAkAAAgCABAABBAgAAggQAAAQJAAAIEgAAECQAACBIAABAkAAAgCABAABBAgAAgq4O/ZTexhjfD97Yl5POBvh9Rz9P3g7++/yEADihOefLGOPlyJ2ttbazzgf4PXPORyPjnlcAABAkAAAgSAAAQJAAAIAgAQAAQQIAAIIEAAAECQAACBIAABAkAAAgSAAAQJAAAIAgAQAAQQIAAIIEAAAECQAACBIAABAkAAAg6OrQz2et9TDGeKjPAdjHWuvx4FG+zTnfDt4DdwTAOX0dYzzVhwDs5tvBo3weY9wO3gN3vAIAgCABAABBAgAAggQAAAQJAAAIEgAAECQAACBIAABAkAAAgCABAABBAgAAggQAAAQJAAAIEgAAECQAACBIAABAkAAAgCABAABBAgAAgq4O/ZRexhivB2/s20lnA/y+vw+e2dvBf5+fEAAnNOd8O/ofZq111vEAv2nOefQPCk7IKwAACBIAABAkAAAgSAAAQJAAAIAgAQAAQQIAAIIEAAAECQAACBIAABAkAAAgSAAAQJAAAIAgAQAAQQIAAIIEAAAECQAACBIAABB0dejns9b6Osb4Wp8DsI+11uvBo3yZc74cvAfuCIBzehhjfKkPAdjN0c+TowOEn/AKAACCBAAABAkAAAgSAAAQJAAAIEgAAECQAACAIAEAAEECAACCBAAABAkAAAgSAAAQJAAAIEgAAECQAACAIAEAAEECAACCBAAABAkAAAi6OvTzmXPexhi3Ize21tpOOh7gN805L2bGPTcAABDkBgB+kV9RwGfiBgAAggQAAAQJAAAIEgAAECQAACBIAABAkAAAgCABAABBAgAAggQAAAQJAAAIEgAAECQAACBIAABAkAAAgCABAABBAgAAgq4O/XzWWrcxxlN9DsA+1lrbwaN8nnPeDt4Dd9wAAECQGwA+rRP86gE4LTcAABAkAAAgSAAAQJAAAIAgAQAAQQIAAIIEAAAECQAACBIAABAkAAAgSAAAQJAAAIAgAQAAQQIAAIIEAAAECQAACBIAABB0dein9HqCTT2dYA/APp4PnuMZnmncuWzbZib8y1rLBwM+iTnnxVlyzysAAAgSAAAQJAAAIEgAAECQAACAIAEAAEECAACCBAAABAkAAAgSAAAQJAAAIEgAAECQAACAIAEAAEECAACCBAAABAkAAAgSAAAQJAAAIEgAAECQAACAIAEAAEECAACCBAAABAkAAAgSAAAQJAAAIEgAAECQAACAoMu2bc6d01hr3cYYT3vuZ8552XO9tdbe/zTf55yPey221npf69te6/3w95zzda/F1lrva33Za73xMc75ec5523lN+GNuAAAgSAAAQJAAAIAgAQAAQQIAAIIEAAAECQAACBIAABAkAAAgSAAAQJAAAIAgAQAAQQIAAIIEAAAECQAACBIAABAkAAAgSAAAQJAAAIAgAQAAQQIAAIIEAAAECQAACBIAABAkAAAgSAAAQJAAAIAgAQAAQQIAAIIEAAAECQAACLo6dE7m9QMcyPPO6739D+udfY8vH+Cs957hR/hsE3LZts15A0CMVwAAECQAACBIAABAkAAAgCABAABBAgAAggQAAAQJAAAIEgAAECQAACBIAABAkAAAgCABAABBAgAAggQAAAQJAAAIEgAAECQAACBIAABAkAAAgCABAABBAgAAggQAAAQJAAAIEgAAECQAACBIAABAkAAAgCABAABBAgAAggQAAAQJAAAIEgAAECQAACBIAABAkAAAgCABAABBAgAAggQAAAQJAAAIEgAAECQAACBIAABAkAAAgCABAABBAgAAggQAAAQJAAAIEgAAECQAACBIAABAkAAAgCABAABBAgAAggQAAAQJAAAIEgAAECQAACBIAABAkAAAgCABAABBAgAAggQAAAQJAAAIEgAAECQAACBIAABAkAAAgCABAABBAgAAggQAAAQJAAAIEgAAECQAACBIAABAkAAAgCABAABBAgAAggQAAAQJAAAIEgAAECQAACBIAABAkAAAgCABAABBAgAAggQAAAQJAAAIEgAAECQAACBIAABAkAAAgCABAABBAgAAggQAAAQJAAAIEgAAECQAACBIAABAkAAAgJoxxj+fJLQL3SHk7AAAAABJRU5ErkJggg==" vertex="1" parent="1">
                    <mxGeometry x="350" y="620" width="70" height="70" as="geometry"/>
                </mxCell>
                <mxCell id="11" value="" style="shape=image;verticalLabelPosition=bottom;verticalAlign=top;imageAspect=0;aspect=fixed;image=data:image/png,iVBORw0KGgoAAAANSUhEUgAAAgAAAAIACAYAAAD0eNT6AAAAGXRFWHRTb2Z0d2FyZQBBZG9iZSBJbWFnZVJlYWR5ccllPAAAA3ZpVFh0WE1MOmNvbS5hZG9iZS54bXAAAAAAADw/eHBhY2tldCBiZWdpbj0i77u/IiBpZD0iVzVNME1wQ2VoaUh6cmVTek5UY3prYzlkIj8+IDx4OnhtcG1ldGEgeG1sbnM6eD0iYWRvYmU6bnM6bWV0YS8iIHg6eG1wdGs9IkFkb2JlIFhNUCBDb3JlIDUuNi1jMTExIDc5LjE1ODMyNSwgMjAxNS8wOS8xMC0wMToxMDoyMCAgICAgICAgIj4gPHJkZjpSREYgeG1sbnM6cmRmPSJodHRwOi8vd3d3LnczLm9yZy8xOTk5LzAyLzIyLXJkZi1zeW50YXgtbnMjIj4gPHJkZjpEZXNjcmlwdGlvbiByZGY6YWJvdXQ9IiIgeG1sbnM6eG1wTU09Imh0dHA6Ly9ucy5hZG9iZS5jb20veGFwLzEuMC9tbS8iIHhtbG5zOnN0UmVmPSJodHRwOi8vbnMuYWRvYmUuY29tL3hhcC8xLjAvc1R5cGUvUmVzb3VyY2VSZWYjIiB4bWxuczp4bXA9Imh0dHA6Ly9ucy5hZG9iZS5jb20veGFwLzEuMC8iIHhtcE1NOk9yaWdpbmFsRG9jdW1lbnRJRD0ieG1wLmRpZDpmZTk1YzUwNS0xYzczLTAyNDQtOWE3OS0wYmI5MTIwYTNmY2EiIHhtcE1NOkRvY3VtZW50SUQ9InhtcC5kaWQ6OTdGRkNEQTBCRjVFMTFFNTg4NzBDMjFFNDcxNUZCNUUiIHhtcE1NOkluc3RhbmNlSUQ9InhtcC5paWQ6OTdGRkNEOUZCRjVFMTFFNTg4NzBDMjFFNDcxNUZCNUUiIHhtcDpDcmVhdG9yVG9vbD0iQWRvYmUgUGhvdG9zaG9wIENDIDIwMTUgKFdpbmRvd3MpIj4gPHhtcE1NOkRlcml2ZWRGcm9tIHN0UmVmOmluc3RhbmNlSUQ9InhtcC5paWQ6ZmU5NWM1MDUtMWM3My0wMjQ0LTlhNzktMGJiOTEyMGEzZmNhIiBzdFJlZjpkb2N1bWVudElEPSJ4bXAuZGlkOmZlOTVjNTA1LTFjNzMtMDI0NC05YTc5LTBiYjkxMjBhM2ZjYSIvPiA8L3JkZjpEZXNjcmlwdGlvbj4gPC9yZGY6UkRGPiA8L3g6eG1wbWV0YT4gPD94cGFja2V0IGVuZD0iciI/PgT3cRIAAB+6SURBVHja7N3fWRvJuujhZj1zP94RjBzB4AgsR2CIYEQEhjvugDvfgSNAjgAcAXIE4AisiWBYEbC6UGm2/BcwEqqv6n2fR4eZvc+Zg7qF+tfV1dUbNzc3HQDQlg0BAAACAAAQAACAAAAABAAAIAAAAAEAAAgAAEAAAAACAAAQAACAAAAABAAAIAAAAAEAAAgAAEAAAAACAAAEAAAgAAAAAQAACAAAQAAAAAIAABAAAIAAAAAEAAAgAAAAAQAACAAAQAAAAAIAABAAAIAAAAAEAAAIAABAAAAAAgAAEAAAgAAAAAQAACAAAAABAAAIAABAAAAAAgAAEAAAgAAAAAQAACAAAAABAAAIAAAQAACAAAAABAAAIAAAAAEAAAgAAEAAAAACAAAQAACAAAAABAAAIAAAAAEAAAgAAEAAAAACAAAQAAAgAGwFABAAAIAAAAAEAAAgAAAAAQAACAAAQAAAAAIAABAAAIAAAAAEAAAgAAAAAQAACAAAQAAAAAIAAASAAAAAAQAACAAAQAAAAAIAABAAAIAAAAAEAAAgAAAAAQAACAAAQAAAAAIAABAAAIAAAAAEQNQds7Gx1P/e27dvB/2P0cL/6I/+NfiF/9S0f/39g//d5Ov/u/v7+1N7E9rmOCMAWG8ADPsfF2t+W4uB8HEhKG4joY+FiT0PAoCn8ZtNwBMa/uCf55Ey/8er/nWdf/538d/7SLi2GQEEAHXavCMSJjkIPuU4SJcarmw2gPtzCaDUHVPnJYBVu42BhTC4MgcB1s9xRgAgANZlkoPgU44CowUgAJrnEgAtGHYLlxMWLiN8NFIACABoOwqmOQrSKMHEKAEgAKANg25hnYQ+CK4XRgkEAVAdcwBK3THmAJRmHgQfchBMbRK4H8cZAYAAqEkKgPOFEQLrE4AAEAAIgAbNY+Dc6AAIAAGAAGhTmi8w6V/vzR0AASAAEABtmuYY+NDHwLnNgQBAACAA2pPmCZyLAQQAAgABIAbeuUyAAEAAIADaNF2IganNgQBAAAgAAdCeNBrwvn+N3VqIAGCV/mMTQFHSo5CP+9c/fbSd9q8tmwQwAmAEwAhAm6YLowJTmwMjABgBgDYM+tdB//rch9yZUQHACIARACMARgVOzBXACABGAKC9UYH5XIFNmwQQANCWUf+67CPgon+NbA7gPlwCKHXHuATAr5v2r3edWwkphOOMEQDgaQy62a2EadLgYf96ZpMAAgDakQ78i/MEBjYJIACgLaM8IiAEAAEAQgAQAIAQAAQAIAQAAQAIAUAAAA2EgNsHQQAAjYaAdQRAAACNma8j8NkSwyAAgDZDIF0S+JyXlAYEANCQQf+6yA8d8vRBEABAY9IoQHr64LH5ASAAgPbsdrP5Abs2BQgAoC1pBCCNBFyaHwACAGhPmhNwYf0AiGPj5ubGVihxx2xsLPW/lydtHed/vepf/33Ef+6PbjYh7OszQRPDSK77197+/v7YpiBxnBEArDEAnlpeTnbwnTj4M/+7YKjfpH/t9CEwtSkEAAKARgLggbEwzP+Yfv6ew0Ag1OOoj4BDm0EAIAAQAA+Jg3kMpDiYX3oY2jLhpMtO6bLAxKYQAAgABMBjwmCQRwjS62UOg4EtU7yTPCJwbVMIAAQAAmBZUTC/bDDMUTAfPaAs0242N8BogABAACAAVhYFi6MEQ6MERgMQAAgAAdDuKMFwIQhMNFyvqzwacGVTCAAEAALgKYNg8FUQGCFYD3cKCAAEAAJgrUEwn0PwunO3wTpGA7atGyAAEAACgHXHQLpcsJVHB9JPEwpXzyqCAgABIAAoLggWY2Bgi6zUeTebG2CCoABAAAgAioqBdKngLzGwUtPO7YICAAEgACg8Bt50LhOsigmCAgABIAAoPgZSBKQJhCNbY6nSKMC2SwICAAEgACg9BOYTCNPIgLUGluM6R8DEphAACAABQIQYGOQQSKMCLhE8XrpL4MRmEAAIAAFApBhIEZAmDw5tjUdxl4AAQAAIAIwKNMoywgIAASAACBsC87kCB53bCX/FdY6Ac5tCACAABABRY2CYQ2BoazyYWwUFAAJAABA+BAY5BEa2xoOYFyAAEAACgGpCwDyBhzEvQAAgAAQA1YRAOvjv5hgQAnezXoAAQAAIAIRAw3Y8VVAAIAAEAEKgTSd9BOzZDAIAASAAEALtSaMAeyYHCgAEgABACLQnTQp8JQIEAAJAAFBjCAw6tw/eFQHuEBAACAABQNUhcNzNVhjkS9d5JEAECADHGTtGAFBtCAxzCHgc8bcRYPlgAeA4Y8cIAKoPgVEOAfMDvuQ2QQEgABAAVB8B84mCB7aGCBAACAABQHshMOh/nHYeOLTIWgECQAAgAGgmBNIEwXRZYGBr3Br3EbBjMwgAAYAAoIUIcFlABAgAAYAAoOEQ2MyjAUNbQwQIAAGAAKC9EJiPBrR+t4AIEAACgHoCIA/3pjO9Qff4677pPuqvF1K5ssxqFRGQPhsmCYoAASAAqCgA0hf6xRP9+ouBMO1ff+d/nqT/w3PajQYEkRYK2hG2AkAAIACWbx4CH3MoTI0kGA0ojIcICQABgAB4QvMRhKs8enBl1MBowDpHAvrP37ZPggAQAAiA9Z6NpdcnUWA04ImZEyAABAACoDCTHAXpMsLEUO3KQ+Cwa3fdABEgAAQAAqDwUYKJIFhpBKS7Sc66NlcRFAECQAAgAIIFwQeXDJb6eUrzAdLiQSMRgAAQAAiA0l3PY6CbTewyOvD4z9Woa/NRwyJAAAgABEDw0YH3OQamNscvf7bSJYE0QXCzsbd+1H9uDn0CBIAAQACIgZYjoNVLAmmhoLFPgAAQAAgAMdB6CIy69i4JiAABIAAQABWaLMSAOQP3+6y1eJfAK5NMBUA0/7EJ4KdSOKXr25/7A9tpDil+oj8QphGUF93/L/XcgrMcPmAEACMAFZv2r3fdbCa4UYGff+7S5YDdRt7udR4JuLLnjQAYAYA6DbrZde5/8qiAM78fjwbs9T928sGxdmnew2meEAkCACo36l+X/Zf+ZZ4Ax7cRME5nxo1EQIrBCxGAAIB2bOazvzRX4NAB4JsISMPiz7vZHRYtfBaO7XUEALRl0M0eljOfNDiwSf6NgOs8EjBu4O2O8vwHKJZJgKXuGJMAa5IOeEfWFPji89jK5EBrBHQmARoBgHaNjAh8MxownxxYO5NEEQCAEPgqAtKZ8XZX/+TAC/sbAQAIgS8j4Lyr/w6BNCH0zMRQBAAgBL6MgKscAdOK3+b8iYkgAIBvQqDZ2wcXlg+u+TbBrbSPfdwRAMDX5rcP7rb45hduE6w5Ag76/bvlo44AAL6WRgCO84JCQxFQJXcGUATrAJS6Y6wDwMykm91LPm3tjae5Ed3s8kiNbuc9tPIwKccZIwDAw6Vwa3J+QH9wTOsEjCt9e5YLRgAA95LmB1y2dv248ggYtTrfAwEAPMygm91PftbSbYOVR8Cx+QAIAOC+tvJoQDNnj5VHgEWCEADAvc3vFmhmmdmKIyDtP4sEIQCABxm2NBpQcQRsmQ+AAACMBrQZAeYDIAAAowGNRoD5AAgA4FGjAdUfSHIE1LZi4KAzHwABADxCulPgcwPrBtS4bHCaDzDyEUYAAI8ZDUgjAdWuOFfxswOOW35ENAIAWI7d/mByWesBZSECppXFm0sBCADg0dLs8mqXEs4RsN2/anq4zjA9A8JHFwEALOOsstpLAn0EXOWRgJoi4MCtgQgAYFl285oB1d0lkCNgr7K35VIAAgBYmmE3u0ugurPLPgLG/Y+dit7SpksBCABgmdIIwGWNt5zlCBhX9JZcCkAAAEt3WuO8gLxQ0HlN+8lHFQEALFut8wJqWi3QpQCWauPm5sZWKHHHbGws9b+X7wEf5S/D782SnvZnTNPv/L8b/ujLqJsNISe/53//+n9OPOnzsf29z0JUOWo+V/S5fJEnO4bhOCMAWGMArOlLdx4D6ecf3Wydc4FQvtuFdaIdZO74PN6ug1BLpPX75oUAQAAIgMhxkF5/5jAY2uvFRcBenkxXy+du1NVzHf2o3zeHAgABIABqOksb5igY5jBgvXYqi4A02bGGxyWnQHsR5VKN44wAQAD8ykhBCoGX+afboNbjpD/Q7FX0ubro6hhxmvT75ZUAQAAIgFaCYGshCIwQPJ1xvq2uls/RZSWfnzRhs/hbHR1nBAACYNlf5Js5CF4bHRABv/DZqWFSYLoU8Dw/DEkAIAAEQJMxMMgx8JcYWKl0trlT+gHnnp+ZUVfHpMDiL9E4zggABIAYqMPtU/cqiYAUAKMK9knRawM4zggABMC6YuBNDoKBLSICvvp8pPkAFxWEYtETAh1nBAACYN1f9vNRgS1bQwQsfC42cwREX6Cq2Fs2HWcEAAKgpFGBUY4BowIioJb5AMVOCHScEQAIgFK/+FMIDG2N5iPgrIs/OlTkCoGOMwIAAVDyl/8wh8DI1mgzAipaH+B5aSsEOs6UyeOAobt9dvwk3+P+vH+NbZEHu72OHvlxwjlealjn4NjHEQEADz8ITIXAoyLgNPj+n/Q/joLvh62fPMYb/uUSQKk7xiWAIuQJgwedSwMPEX7FwH6/X3axbw0s6pHBjjNGAMCIQBtGeYGdyLa72az6qDbzBFcwAmAEgCWOCKSD29DWuFOoZ9Z/Z1+nxwZHvp4+7WYrBK49ZBxnjABALSMCacW19LqyRX7qIPJZaL+fT/ofk8DbP8Xqro8hRgCMALCas8RRPkt8Zmv8UIhH1v5g/6aD6GXg/VvE4kCOM0YAoMYRgXE3mx9wYmv80Glebjfi/p12se8KeGYUACMARgBY/dni/DY4TyD8/pnoi9IWqHnAvk3PChja9kYAjAAA3ztbnN96tdfFnkG+qjPRs8ALBe0E3qdpmx/4CCIAYPUhkC4HpBCY2BpfCLtQUD57fhd424/yfAYQALDqA0a+W8BowJfSKnXHQffpYRf7zg+jAAgAMBqwVruBbw+MvMKhUQAEAKxxNICZ44h3BqR5Hl3sOz6MAiAAYI2jARYQij0pMN0WGPWyjlEABACs8QwyjQaMbY3blerOAu7DdPCPPJpjFIBb1gEodcdYB6B6VhH810l/UN0LuP8irw3w/CnXBXCcMQIAfHkmOe48UyBJkwK3Av7eRgEwAoARAB51JvksjwSMGt4MIVcKzLc0Rl1q98lGARxnjAAA3x8JuO5fO13bdwncTgoM+HuHnhDor08AAGWEQLpLYLtrd+Ggzf6M+jBavHVxHxb0JvDSzAgAqC4C0mNz07yAaaOb4KA/KA0DhlvE/eVJgQIAKOyAkiYFtrxeQMT1AaKuEPiXvzgBAJQVAdddu+sFpIP/abD9NeliLvc8CLwsM4/kLoBSd8yS7wLIq3+lP/Tfu2+fVz/Irx/5+ostHZw+5X+e5td1PnNlyfp9d9q1OWFrJ98qGWU/pb+ry4DbOS1V/XyV/x84zggA1hsAw/7HxRP86ikOrnIU/J3jYRrt9q4CDy6jLuijdB/5WQp1a2DgWHuVRzEEQEN+swlYsjR8O1z494P8xTgPg4/55yQPc3MP6Uy434ZdYxEwvxTwKtDvfBQ0AN50nlhpBAAjAE9omr90UhScCwIjAT+wl2faGwVYrZUtDOQ4UyaTAFmnQf6iTF+Y//RfnJdpZbWIj4l9ypGALvYz6X/FQbAn2KUFnSLGrOWBBQCsTTrwp/uSUwikIDgNukb8U0TAi66dBYNC3RWQR7LeBdzOWxYGEgBQypd+Gh04W4iBoc3y70Fm/ljhViJg2O//SIvWnATcN+lvTnALACgyBi76g8DntFxssCHhVUbAdkNv+SDKGWrgUQCXAQQAFGuQv6RSCJy1fokg37rVypyAaAsERRwFGBhpEwAQQTr4n+VRgd1Wr182NjFwK8oBKvAogOWBBQCEGhU4zqMChy2GQGMRYBRgtUYmAwoAiCZ9aaXLA/NJg4MGI2CvheCL8tjgwKMAI18nAgCiGuURgaZCIC+YM27grb4JtF8j7o83vkIEANQQApctXRroI2CngQhI+/I4yP6YBtwfAwtyCQCo5WAxv3Ngt5H3nC4F1P50xq1AM9aPjAIgAGDNZ435roFhzW80X3tOCwVNK9+nkUYBzgMGlsmAAgCqMuhmiwqd1Tw/IEdAWiio5tUCN/MDkiKINhnQyoACAKqVvtwua74skFcLrP32wOMIZ6p50aZJsG372teEAIBazS8LXNQ6GtAfeNLQ81Hl+zBKxL2PFsmW3RYAULthzaMBfQQcdvGuQT/EmyCjAOMu3rwMlwEEABgNCC5dCriqeN9FeZBNtFEASwMLAGhuNKCqM588KTBFQK2TAneDhNtJsO26aU0AAQCtjQakuwSOa3pTeVJgzcsFHwTYBynAxkYBEABQ/lnlZU2XBPJ16HGl+2sUZF9FuyXQPAABAE1Kw5+XlS0eVPNKgRFGAa6CbX9LAwsAaFa6JHBRy10CC/MBjAIYBbgvlwEEADQt3SVwWsMbyWehta4PEOGOgHRbZqQJmS4DCABo3ijPCwi/TnpeH2BiFGAt2/66i7U2g8sAAgDoZvMCalkvoNZbAyOMArgMgACAoBFwGf2sKD+prsZLAaPSR2nyZZhpoG3qMoAAALL55MDoEZAWp5lUuH8iTNqMNAow8GwAAQBUFgFdnZcCIjwjINozGowCCACgpgjIlwLeVbhftgJs90gRYB6AAAAqjIDDrr4FgiJMBvwQaHtu1nAHDAIARMC3antWwCDAg52sCYAAABGw9lGASVffswLeFL7No60J8NKfuQAA6hwJ2OvqmhA4DDB7PdJlACMAAgC4RwQMov3i+Yy0trUBDgrf5pEuAzyr7OFYAgBYSQScRZw0ldcGmFa0L7bcErhUAkAAAHdIlwHOgv7uNT0xsPhbArtYlwFe+9MWAMA9zpYiPkUwTwicVLQfSp8MGOkygNsBg/vNJmjO/Mv848L/7OqOL53hwj//mc+kBvnF/aW16T/lofVIjrp6hnvTQWszr8FfqhQBoyhh28VbyZBs4+bmxlYoccdsbIT4PfMs9xQC6efL/NNZwc+9ymfWYeTRi1El2/+k3/57BW/rdJkiyiWjcb8t77xM5DhjBIAK5TOpq8WzgBwFwxwEQ0HwjTQp8EVeAjbSKEAtAZDeR8mLHUWKw6E/ZyMANDoCcM8zmvQlkSYMbXUuG8xd9QHwwijA2mzn6+2lbuuzLs699s/vilnHmTKZBMhTjBJM0pBr/3re/2s66KVr4NeNb5Z0Lfo42O9c07oApT/QJtLdAEYBBADcKwaucgz8Xze7xWzS8ObYDbBG/eK+S2d540q2felrAkT6u7AssACABx9Q0gSiV/0/Pu/qW3v+vk6D3UpV0yjAVsF/Gym2ojyV0QiAAIBf/7LLM4nnIdDS5YHblQKNAqxF6ZcBoowCDCIud40AoMwQeNHYiEBaJGjXKMBatnvJB65I8wA2OwQALHlEoJVFRg6inEXlUYBJJdu95MsAaRtHGQ0zD0AAwNJDYLv/xzRPYFr5202XAiItFVzLKIDLAMsx9I0lAGAlZ0L5FsKjyt9qGpIeRdknlURZ6evZf4yyHX1TCQBY5UHnsJvND7iq+G0eB7oroJYgK/lWzCgjAPMFvxAAsLIImK+gV+toQDr4HwfZF+Oujjs2Xpf8eQ+0jQWAAIAnGw141dV5y+Ao0NnUuIYRgMJHXaJMhP3TN5MAgKeKgEk3u1OgxksCUZYJflfJ9i45uMwDQADAdyLgOl8SGFf21jYjTAis6JbA1wX/blECdxBsVUsBYBNQSQikdQN2KntbB0G+UN8bAVjpZzvSPACjAAIA1vJFOa4sAgb9azfIdo8+FyOdvZZ88JoIKQQA3H0wetHVMznwTZBRgBpWbCz54BVlHoCJgAIA1hoBaci0ljsEnkUYBejqmAxoHsDjuQQgAEAEtDQKkLf31AjAyrbvJMg2NBFQAIAIaHAUIPxlgMLXX4gSAUYBBAAUFQFGAVavhssAJQeAywAIAPiFCIh+d0DxowB5TYDoizKV/FjbT0G24R++dQQAlHRwGvc/9qKPAgT4HT8YATAC4BtHAEBpEXDSxV4x8FmA1QHNA1jd51cAIADgEV+iO13sYeo3hW9fdwOs1iRIqLoTQABAkba7uHcGbAZ4UmD0UYCSF7MxCoAAgEecpaYz1MiTAv8q/PczD2B1/hYACAB4XASks9SToL/+qOQh1rxoTeS1F9IQ9sAIwOO2oW8ZAQAlR8BeF3c+wKjw329iFGBlcRXByw4BAIWLeimg9MsAH4N/LkqeBzA1AoAAgMefUaURgKOAv/pm4Y+vjT4RsORtO7X9EACwHCddzFvXih0FyBMtp4E/E8OCf7cQoysFz6NAAMC/B6s0YS3iKoFbhf9+k8ifi4IPYFHCSgAIAAgRAecBD1iDwi8DRJ8HUOq2ndp+CABYroijACVPBoz+YKBN2/VRTAQUABBmFCB9sY6D/dpbhW/PyOsB/Fnodr22/RAAsHzR7ggYFD7ZahL4s2C7GgEQANDQKMDUKMBSfQr8cSj5GnaEUYBBR9F+swnak88Yh/kP9GUu9R992U3zKw3npnXIJ4EeS/qYUYBRoN/3dVfussbpTPUg8N/KZqGf909d+XeBCAABQClfZN1swtjWA/8wB/k1XPhvpbOPNGv+Q549X90oQP8ex4EiYFjw7xY9Fksdxg4xDyA9syLQnIXmuARQ/4E/PTjmc/+Pl/1rd0lV/iwfHM/Sf7t/HVb4/O/3wfZzkRGQv/yngT8HpcaVxwIjALjzwH/arXYoLv230xBvVSGQH7oS6ezVKMBq/G4EAAFAmDPBJzrwf29UYB4Cu5VszneBfteSn75mIuDyA9UIAI9mDkA9B/75AXjdB9/0exz3v0+amLYd/Ppfmt9w3MW4nckIwGoMOh77fYARAFZ48E9fUhcFHPy/PiB9LvXa9D3PsuaTHaN8Dkrd1lMBsBIT334IgLYP/mmILU3wK3GoLdX/RZqPEHgTfwj0uxquXs3fmLPYX/fSJhAArOaLaZTP/Ev/gjpNEwSDjgKkEQBLrz5e5AjwUCAEAEUd/NP9/KddnGtsB1EjoItzGcDKdW352yZAALR38N/MB/9oDoJeDohyGcCjgVdj6Funys+kALAJwh38b6+rd3Fn154GnBg4CfT5cLBqxzTA72j+hABgic4q+KM6izSxKt8NECUCBiJq6f4QAAgA1n12d9jVMRz5LIdMJFGGsAf+UmxTEAB1HfzTl9BBRW9pmCcyRhHlDLbI267y0sosV5QHAg3tKgHA45zW+J6iXApwADMCUOBn8squQQDUf/afCrrGik4H/0jPDYjwhVvy52QqAEAA8DAHFb+3N4EmBDrjajMAQACwlrP/za7u+5DTwX8U5Hf9FOQzM/SXAwiACs6QvUcjAEYARNUPTAJsPkEqAPiFL510drzVwFsd5JEOB7Albc9Cfy9L14IA4AHl3MpKWn+V/gvu7+8LAEAA8CReN/Reo4x0uAwACACeZASgFYO82FHpIiy+8nuhv9fUnzQIAO6Qr/8PGnvbEeYBXNuOTQaAh9ogAHAwbPw9f/LR9PcIAoBVGjb4nv+02+FBPtoECABqYJgVQAA0r8Wz4YHdDiAAnA0LgBK5DRAQANCga5sAEAAAgACABrgdDBAArFSL15onAX5HdyoAAoCV+q9NAIAAaM/UewbuYPEsBICDYRUiLLP7u4+mv8eCuCSFAKjN/v7+pMG3HWHeQ4RJgFN/QbYpCIDYmoqARqNnFf4u9Pca2jUgALiflh70cR7k93QbICAAcFBsMHZccwWq8JtNUK79/f2rt2/fTrs2HpIzDvJ7vgrwO14VvI8nQT+fpW7TvQBROvVtXqaNm5sbW6HEHbOxcfuzD4Dd/sdx5W/3vI+dbXsd6uQ4UyaXAGKcGdf+AJp3djOAAGBBf2Z8XfkBcmL2P4AA4PtOKh4FOLJ7AQQAbY0COPsHEADcEQGHXV1PCExRs2PPAggA7lbTAfOoj5qpXQogALh7FCCNAOxV8FbSbX8n9iiAAOD+EZAOnOPAbyFFjKF/AAHAL9jrYs4HSNf9t/OkRgAEAA8cBUgH0FfBIuD2d3bdH0AA0E4EzA/+V/YcQBk8C6DUHZOfBXAfb9++Pe1/jAp9K1f54G/YHxrlOGMEgNWNBqRJdSXeHTB28AcwAsCKRgAWRgI2+x9pNGBzzb/+7SI//YH/3J4EHGcEACsOgIUQSI8QPujW85zwdJvikbN+QAAIAJ44AHIEpIN/CoE3TxQC487qfoAAEACsNwC+CoGtHALLvjSQDvbv08HfgR8QAAKAggLgqxgY5Bh42b+GvzgyMOlfH7vZcr5u6wMEgACg9AD4QRAMcgz8TDrQTx3wAQEgAAAAAQAACAAAQAAAAAIAABAAAIAAAAAEAAAgAAAAAQAACAAAQAAAAAIAABAAACAAAAABAAAIAABAAAAAAgAAEAAAgAAAAAQAACAAAAABAAAIAABAAAAAAgAAEAAAgAAAAAQAACAAAEAAAAACAAAQAACAAAAABAAAIAAAAAEAAAgAAEAAAAACAAAQAACAAAAABAAAIAAAAAEAAAgAAEAAAIAAEAAAIAAAAAEAAAgAAEAAAAACAAAQAACAAAAABAAAIAAAAAEAAAgAAEAAAAACAAAQAACAAAAABAAAIAAAQAAAAAIAABAAAIAAAAAEAAAgAAAAAQAACAAAQAAAAAIAABAAAIAAAAAEAAAgAAAAAQAACAAAQAAAgAAAAAQAACAAAAABAAAIAABAAAAAAgAAEAAAgAAAAAQAACAAAAABAAAIAABAAAAAAgAAEAAAgAAAAAEAAAgAAKBm/xNgADootqjJHZs1AAAAAElFTkSuQmCC" vertex="1" parent="1">
                    <mxGeometry x="400" y="570" width="67" height="67" as="geometry"/>
                </mxCell>
                <mxCell id="12" value="" style="shape=image;verticalLabelPosition=bottom;verticalAlign=top;imageAspect=0;aspect=fixed;image=data:image/png,iVBORw0KGgoAAAANSUhEUgAAAgAAAAIACAYAAAD0eNT6AAAAGXRFWHRTb2Z0d2FyZQBBZG9iZSBJbWFnZVJlYWR5ccllPAAAGzFJREFUeNrs3ct1FMnWBtDof/X8qi2gZAGFBSpZgLCAkgUNI4aCISPRFkhYgLCAlAVIFlBYgK4F/BVdJ68CoXc98rX3WrFSomlQRSZ5vojIxx8/f/5MAMCw/J8uAAABAAAQAAAAAQAAEAAAAAEAABAAAAABAAAQAAAAAQAAEAAAAAEAABAAAAABAAAQAAAAAQAAEAAAAAEAAAQAAEAAAAAEAABAAAAABAAAQAAAAAQAAEAAAAAEAABAAAAABAAAQAAAAAQAAEAAAAAEAABAAAAABAAAEAAAAAEAABAAAAABAAAQAAAAAQAAEAAAAAEAABAAAAABAAAQAAAAAQAAEAAAAAEAABAAAAABAAAQAABAAAAABAAAQAAAAAQAAEAAAAAEAABAAAAABAAAQAAAAJrwpy5Yzvv373UCXTOKVrqYtzNdQ5e8efNGJwgAMBiTa4r4f+ZtXPyerSvfr8JZhITy+//G17NoWWUXgQAAPK7A1wW8LuzrKOgPNb4hiNwVGOqgUH8vIIAAAINVF/TcnhRfb/XoM45vCQp1MMjte/H1hUMDBADoi1FR4HfS9evvQwxAk2vCwSzaaREKZg4hEACgCyZFsR8r9g8OS6MrwWAWQaAOBZVuAgEA2lLwJ1HwJ7pjbaFgr/i1KgJBJRCAAACbMo5C/1zBbzx0HRSB4HNs3coIAgCsxFZR8PdSvy7U61sgyPKFhCdFIHBhIQgAcG+jKPY76depZ7oR2KbRUoSB09jOdA8IAHBT0X+Zmr/nntXZi3aYFssDH4UBEABA0R+W+nZMYQAEAAZoK4p+vaaPMFBfM5C3rhlgMLwNkKGYzNvRvH2LreJPbe/KsTHRJQgA0P3R/qs4sX9JiwvDXMXPbcfLNI6Vb3HsOF4QAKCDo/0faTHFO9IlPNAojp0fZgUQAKD98ujtazHah1UdV1/i2HJcIQBAS+Qp2rfFSM3V/KzLOF3OLL1NlgcQAKARo3R54daBkzEbDp0H6fKiwZEuQQCAzRb+qcJPw0FgKgggAMB6TdLl1dlT3UHL1EHgU3LBIB3hQUB0ofAfOKneyyz9+lS7/FCb8yX/zKfp11mWkZHurepHD1fz9i55XTECADxYLjKHyQN76kJ+dqWgVzcU/U3vo1ER1MrAME7DXp6ZRDuOIDBzGCMAwN1FJY/4pwP87FUUiu9R8Gep3e+3L8PHTSPdcezTvH0SX08GtE+n0QQBBAC4Qf3UvoMBjehPY3vW48JQf76Ta4Je/Tz+nQHMGNRBIIeAD8k7BxAA4F914e9rAaiuFHyjwMvZg5NrQkEdCPo4U5CP87+LIAACAIOUT/B9vH2qimJfJReBLRsKJtF2ehQIctA9jCCw7xhBAGCIo/7DnnyWsziJf3YyX0uYqq4Eguex7fpTH3Pwzbe2vjYbgADAkBynbk/7nxQFf2Z3NhIIRkUg6OrdIhfxbwE2zoOAaPLEt9/BE/WLefsjtseKf6NmN+yTLl1gt59cEIgAwACdpN+vDm9r0f8rTtYndlurj6f92FddCAMnjiea9MfPnz/1wj29f//+y4r/yI/J9F9eAviW2rUUcBL7xsm5H/LywMvUrmWCHEy2jf7/vTXy5Sr/wDdv3uw65O/HNQAPM1nxn3eqS/+3FPCp4Z8jX8j3TxR9U7L9mxk4iZCZQ0C++r7pCwhN/S+Mksd8N8YSAG06QTcRPvLV18+iHTsp9z5sHhf7u6kH8pj6RwCAhkZEZ+lyrfh1avfjdlnfMZD3/XYcC5s6Brp28SsCAPTixJhHf7vFaB/KWYHdDRwXpv4RAOAa65gazSfbd8VIr9LN3KCKY2Q7jpmLDhzfIADQG6saIc2Kwv82uV+fhx07b4sgsIpjx9Q/AgCs+UQ5K0Zxb5PpVpY7FusgsL9kEDD1jwAA9/CYqdKy8B/rQlbseIkgYOofAQDWMGJS+GlzEDD1T2t5EBBtddcDguqL+7xF7XeTK9+P0sNfuTy7psBVuvaXIJBbfqvlbS+1MvWPAACPUE+d7l0p/P+k5h7i0qRxFJp6+6Qo7JMN/yxVERS+x744K7ZD8aEIAn9fCQKm/hEAYAn7Udy24kS7qquy2z6Cr0ftO48cwW96luGmGYTT4uu+ziDUFwsex2zANJn6RwCAlZxcX/R4ZDmJ9jRG9qOefK46tEyuCQZ5P55HIOhTKJhF0f8nAqupfwQAWFJfisSoKPaT1PwLaZoMBnsxWk4RCKoiFMw6/hk9WhoBAAaufvvcTrqc1ud34ythaBZBIC8feDsjCADQmWKWi/7zgY7wVzVLMI12FCPqzxEGjK5BAIDWqAv+Xrr5djCWnyE4KGYH6kAACACg6A9sduAiQoAwAI/gSYDwsJFonpL+kRYPKJoq/o3ain3wKfbJUbLsAgIArHDEmR/y8m3evir6rQ8DX2NfvUouugQBAB5hL0aWuZgcKiadC22Hse8+pV+fJAkIAHDtKPKVwtHbIPcqmb0BAQCujBiPjPYHMytwZB+DAMCwTYrR4dTocBDqawXqWZ6JLkEAgGEV/i/RTPMP115xHAgCCAAwkMLvhI/jAgEAnODBcYIAAH0xdkJnySDgwUIIANAho7S40vurws+SQeBrctcAPeVdAPTRFydsVmgaYWBbVyAAQLu9TotbvIZiFi2/HOe8+PXqmt9b3WPUe9uv7cR2NLCQ9do/KwQAaL+TaH26xe8sivx5UfDPouiv0kNDQ76vflwEgqexHffweAIBADpgP0auXXy4TxXF/Ty2Zy3+WS9uCQjjaE9jO+ngvriIYwkEAOjYibvtSwGzKKDnReHvi+vCSx0EnsZ21IEgeeGfEwIAdEsblwLqEfPn2M4Gtk+uhoJRBIHnqX0zNqb+EQCgw9qwFHAWxf5jz0b4q5AD0HG0eobgZeyzJq8jMPWPAAAd19RSwFkU/JMBjvJXNUOQZwf2IhBsOgyY+qf3PAiIIdjUVG4uXPl2sXy/+LN5+6D4Lz078CH6cjv69qxHxwsIANDhEd1FUaQU/c2Egbqf17U/Tf0jAECPrPrEXsWf99cGR6Ys1DMtf8U+qDoQFEEAgAYtO7WbC8NxWkxH76bLC9doznHsi+34+qLB4wMEAGixx4zwZulybX8/meJvo1nsm/pagYfuI1P/CADQcw850ZdFZV1rzqx+/354RFgz9Y8AAANw11RvVRT+Y93VWcdFEKiWOB5AAIAeuW7El0eLu8n6fh+DQL1fZ9fMGJj6RwCAASlP/LNixF/pmt6q0u9LA6b+EQBggPK074tkqn+IMwLbse9N/SMAwIBDAPY9CAAAgAAAAPSQtwFCf0xim9+cV7/++ElavFXvMWbz9j2+zhfK1Y87rnQ1CADAZo2j5aL+NAr9pKGfpYpgcB5hoXyVLyAAAEsU+0kU+rrwt0kdPPau/HodBM4jJAgFIAAA9yj4z9Ov0/hd/BxlWKmXDz4LBCAAAIsCvxcFf9Lhgn+fzzkpZgwuIgjkQHCSPIgHBAAYgFEU/ZepfVP6mw4+uR3FjMDHCAMzhwgIANCngjcdeNG/Tb1kcFiEgWMzA7BengMA65NHuJ/m7UcUN8X/fmHgMPrsU/r9AkPADAC00qgY7Y90x9IBKrdZMSsw0y1gBgDaZJIW69nf5u1A8V95qDqIvj1KzT33AAQA4JdR6pdoU92xdtOivwUBEACgkUKUR6SfFKJGTCIEfBO8QACATRb+PBU90h2NG6XLpRdBAAQAWNuoU+FvdxCY6AoQAGDVqrR4WA3tdJK8qRAEAFiT/eQBNW10EfsGEABAoRHMAAEAVuckWQqwP0AAACNOGmNGBgQAUHgEMeC+vAsAHq+eeu7CC2tm6f7P0c9vLxx3qP8BAQAaGYFOomg2XdxP4/sqtmcrGB2XYWAS2520uO9+1OBnNgMDAgA0qi5Enzb0951FO49ttYHPV10JFqVJBISnsd3UzIGpfxAAoHHrXAqoi/xpbNtW9KorwWArQsFOEQ7W1d+AAACNW9VSQD3i/hxFrmuj3IsrBXorgtHzFfaPqX8QAKBVhe+xSwF10fzcw5Ft/mzH0VIRBvYeGQZM/cOKuA0QVuehU9NVFLS/YnsykD7Kn3U7ttUa+xcQAGBj7hqh5v/2LgrgbjEyHpp6ZmA3+uLDPfrN1D8IANDqwnZdoZoVo/236f735A9B7ovX6XImZPaIYAUIANC4cqq6Kka5x7rmTsfpcnakuqY/gRVxESCsRx6x/pO8n/6xqmiTtLgVEhAAoBMuFP+VBQFgDSwBAIAAAAAIAACAAAAACAAAgAAAAAgAAIAAAAAIAACAAAAACAAAgAAAAAgAAIAAAAAIAACAAAAACAAAgAAAAAIAACAAAAACAAAgAAAAAgAAIAAAAAIAACAAAAACAAAgAAAAAgAAsHJ/6oJBmczbF90A3GB33irdYAYAABAAAAABAAAQAAAAAQAAEAAAAAEAABAAAAABAAAQAAAAAQAAEAAAAAEAABAAAAABAAAQAABAAAAABAAAQAAAAAQAAEAAAAAEAABAAAAABAAAQAAAAAQAAEAAAAAEAABAAAAABAAAQAAAAAQAAEAAAAABAAAQAAAAAQAAEAAAAAEAABAAAIDW+1MXNOrJvE02+PeNdTnQonPEE10uAAzVNBoPV83b7or/zJ8P/P278XOsytt5O7BradChLhgOSwAAIAAAAAIAACAAAAACAAAgAAAAAgAAIAAAAAIAACAAAAACAAAgAAAAAgAAIAAAAAIAACAAAAACAAAgAACAAAAADMSfuuBBdjv+84/n7bAn+2Iybz8b/hm++CdBz7yetzPdMAx//Pz5Uy8s4f37910rmooWcNsgp+rKD/vmzRt7bAmWAABAAAAABAAAQAAAAAQAAEAAAAAEAABAAAAABAAAQAAAAAQAAEAAAAAEAABAAAAABAAAQAAAAAQAAEAAAAABAAAQAAAAAQAAEAAAAAEAABAAAAABAAAQAAAAAQAAEAAAAAEAABAAAAABAAAQAAAAAQAAEAAAAAEAAAQAAEAAAAAEAABAAAAAOu1PXTAo1bz9oRsAMAMAAAIAACAAAAACAAAgAAAAAgAAIAAAAAIAACAAAAACAAAgAAAAAgAAIAAAAAIAACAAAAACAAAgAAAAAgAACAAAgAAAAAgAAIAAAAAIAACAAAAACAAAgAAAAAgAAIAAAAAIAACAAAAdsTVvE92wtEn0JSAAQCcczduXaILA4wp/3X9HugMEAOiCvWhlIfs2b1Ndc6dp9FUZnMr+BAQAaKWtG0aso/j1H/N2GN9z2TeH0TdHN/TNUbIUAAIAtNhdhSr/t1fFKHc60MK2FZ+9nh15dY9+sxQAAgC00kOnqidR1L7Fdm8gfVR+5ska+xe4xZ+6AFY2oj1a4v+dRruYt2rePs/bSXzf9X7JRft5Ws0V/UfRPxcOORAAoA1WtUa9VYx08595FgXvtCOFr779cSe24zUFrRcOORAAoGnrnJoeR3sV359FOy/CQZPqIv+0+Fk31d8nDj0QAKDJEe8mL067rsjOop3G91URFi5W8PnGRbFPMbofpWbvZLAUAAIANKoNt6fVxbgu0AfX/J46JDzkz+tC8LIUAAIAbFyXrkrvQlF/bP9bCoBHcBsgLDcCpVkeEAQCACg8ghggAMD6eCCN/QECABhx0gJmZEAAAIVGMAMEAFidSTLV3GZ76WHvFgABALiXat720/3vp2dzZrFvKl0B9+M5APAwx9GmafHAnZEuabzwv4t9Mjhv3rxxBGAGABoIAttp8SQ6o87Ny32+G/vgWHeAAACbdhKFaFch2ljwqvtb8AIBAFoxIt2PEWmekp7pkpWZRZ9uJ+v8IABAi4vV23S5POA59Y93En24HX0qVMEKuQgQ1lvAcsv3qE/n7WX6/VW+/Cq/wvhjWkz1e9UvmAGATsuF7MO8PYvR7OsodFwW/dfRN8+irxR/MAMAvTKLAvchZgbyw2uep8UDbIbyhMFc3Kt5+5wWMySKPQgAMLiZgeN0effAOILATs8CwUWM8j9H4Tf7AQIAUDiL9uFKIHgaX4879jnOFXwQAIDHF9JSHQRGEQy2UnPPv69idH8eP+dMsQcBANhcKKhNipBQLx88SY9/XHEu6N/j64vi763sBhAAgPaoFGjgvtwGCAACAAAgAED/7ekC+x4EABheAfg0b9/S4lG9DMM09vknIQABAIYnXyV/FF+P4utcFCa6pteB71vs61H82lEazhMYQQCAG078uSh8iWZGoF8j/i8x4h/dEgRBAIABjARvm/qdFDMCgkC3C3894p8scTyAAAA98JAR36gIAq+SqeKu7N9X6fep/rtYCkAAgJ57zIk+F5HDRxQVNqcMa4eP2EeWAhAAoMeWnerNRWIaRcZ1Au0wjX1RL9dsNXh8gAAALbTqEd4k/rwfMeIc6+KNGUef/0h3r+8/lKUABADomXWd2Os156/R8tcj3b1yo2v6eV3701IAAgD0xKamduuR6TdhYOVFv17bH/foeIFGeRsgfdfUiG5cBIL8Gt1q3j6mm1/ly2W/vUyLaf0ml1WOYp9d2CUIANBNbVjTrcPAqygoubB8ju3MKP/fYv88tm1Zf6+D4wv/hBAAoHvaOJW7deXnmkUQOI9t32cIxlHon8Z21IHj58Q/JQQA6I6uXMyVC+D0yq/VQeA8tl0NBfXMx9Oi8HeNpQAEAOjgiburt3NNrimWZzFbcB7bWfxa04VpK4r7KNrT2PbltkhLAQgA0CF9vIq7Hk1f97nqQJCdXplJSNfMLtwVPm77tZ3Y1gV/SMeTpQAEAGi5w4F93rIYl8X6wKGw0mNKAKBXPAeAPtqdt2PdwIocxzEFAgC03Gze9uftWbp7yhtuUsUxtJ/crokAAJ1yFiO3XUGABxb++rjx4CYEAOjJCV0QwHECAgBO8OC4QACAIZ7wXdk9XCcKPwIADDcI5Ae8bKfFld6e9tZ/F7Gvt2PfK/wIADBgs7S40jsXhdfJFd993cevYx+7qh8EAPhtdPihGB1aHui+k3Q5y/MhmeWB//EkQLi5cOQ2SovHwP6dhvPo2z6M9v+J/WekD2YA4NHFpJ4VyA+FOTaKbKV6bf9ZMdpX/EEAgJXID4XJ68d/pcW0sjDQjqL/IvbJfvLgHrg3SwDwOPUSQS46eYngeVq8iGeka9Yqj+qrefucXKMBAgC0JAxk4yIQjHXNSpwVBd8IHwQAaG2xyu3tvG1FGNgxO/CoUf5pFH3LLCAAQKfUa9TH8f0ogsDT2JohuAxNueCfx3amS0AAgBTF8iJ1f/p3VoSB8rPVoWA8gFmCWezHuthXPfyMeT9uJU8ZRACApeQT6afY5uL5rmcjxOuK4CSCQG47xdddK/S5nRZf970g5n10MG/TCKzbyfIFAgA82lEU/xQn1rymnh/y0uenulV3jCzr7ZMiGEwa+hlzYf+eLmdo+jBT85iQ+iotHha1VfxaPnZf+CeMAAAPtxft6sn2IE627yIIDMXZHQEh3RAGHjODUI/a7xNMhuxVHI9btxy/bldEAIAHjqqO7vjvh0UQONZlCvUGTaPw3xWsjmJ/WAqgdTwJkLY6umFUla4Z3ebf+y1OyrDuwv8tjrnRPX7/XUEWBAAoXDf1LwjQpcK/7PEMAgCDs+yIqQwCb+85iwA3HYtvlyj8pSPHIgIAbOZEmU/WB0UQGOlaHnDs1IX/YEXHjqUABAC4xTqmSreKIJBPwBPdzA0m6XL26GANI3ZLAQgA0NAIaTpvX+bta3xtSpatOBa+xrExXfPfZykAAQAaPDGOi5HeYfJM/iEax76vZ4Y2dQxYCkAAgEJTU6P1E9y+mhUY3Gj/a+z7rQEd7yAA0LqTchtGRPWswI+0ePeAE3S/Auan2LebHO3fxlIAAgCD18YT4dWCIQx0s+i3OdBZCkAAYPAn6TYX13rKWBjoZtGftnyUbSmARnkXAEZADwsD0/g+v+Dlc1o8531mdzZilBa37j3vcCH1rgAEAAan7aOzh4zezuIkXgcC1tvvO1H4+3D3Rh0sP9i1CAAMxYconMs+YrUNxtFexfc5BJzGViBYziRaXfT7ZDZv+44RBACGKJ/4ttPt71TvctE6KD7nWYSCs2TJ4CajCFI7sZ309HPm6f53Rv0IALA4ER4XQaCvo9hXRQG4GgjOBlrsy4I/hNvi6sJvzR8BAIqi+DaCQA4B0x5/1q0iFJSqCAPfIxBcpO5PD4+LYv8kXV64NzTHUfxn/qkjAMD18glyP06WfQ8C180U3BSO6kBwXoSFur+aKiqjdHn9Rv2zP42AM5QRvcKPAABrCgIfIwhMBtwXW8Xnr+88OLglKJTfny/5dz+9UsjLos/Nqij8la5AAIDHn0irKIB/Jw9OuW9QSFcCA5uRnw/xj8JPF3gSIF0KAi/S4q6BY91ByxzHsflC8UcAgPWYpcXSQB0EXE1NUy6Kwr+frPMjAMDGg8A7QYANF/53Cj8CADR/Mn47b3/FyfhMl7AmZ3GM/RXHnNCJAAAtcTxvz+ZtN7lOgNUeV7txbDmuEACgxapipPY6maLl4WZx7NQzS5UuQQCA7shTtPmxq9vFrIBpW247XurR/nbyyF56znMAGNKsQBWjunxvfJffIc9q5Xv3P8dWwUcAgJ6P8nIbRQh4mfrxbnnuL1/Q9zGK/kx3IADAsOQT/4dowoCiDwIACAP/hoGdZJmg63KxP1X0QQCAh4aB+vn69TUD3nDXbhfpck2/Stb0QQCAJQtKbvl2sHERCCa6pxWqouB7EBQIALAWZ9E+xPeTaDsCwUYL/mm6vLMDEACgkWJUFqFJzBLsxHaki5Yyi8B1GlsFHwQAaHUgqGcIRhEE6lAwEgpuLfazK8XeGj4IANDponZS/NpWEQqeFF8P5QLDi3S5lPK9+FqxBwEAel8A65mCqyZFQPhPEQy69myCs6LQ/7f4vrL7QQAAflcXyJMb/vsktqN0uZTwnysBYR2B4eoIvS7sV/+bAg8CALDGgLCMMjzUZsmDcmBQ/vj586deAICB8TpgABAAAAABAAAQAAAAAQAAEAAAAAEAABAAAAABAAAQAAAAAQAAEAAAAAEAABAAAAABAAAQAAAAAQAAEAAAQAAAAAQAAEAAAAAEAABAAAAABAAAQAAAAAQAAEAAAAAEAABAAAAABAAAQAAAAAQAAEAAAAAEAABAAAAAAQAAEAAAAAEAABAAAAABAAAQAAAAAQAAEAAAAAEAABAAAAABAAAQAAAAAQAAEAAAAAEAABAAAAABAAAEAABAAAAABAAAQAAAAAQAAEAAAAAEAABAAAAABAAAoBH/L8AAfzykSxUIlCgAAAAASUVORK5CYII=" vertex="1" parent="1">
                    <mxGeometry x="140" y="270" width="130" height="130" as="geometry"/>
                </mxCell>
                <mxCell id="14" value="" style="endArrow=classic;html=1;exitX=1;exitY=0;exitDx=0;exitDy=0;" edge="1" parent="1" source="11" target="8">
                    <mxGeometry width="50" height="50" relative="1" as="geometry">
                        <mxPoint x="360" y="500" as="sourcePoint"/>
                        <mxPoint x="410" y="450" as="targetPoint"/>
                    </mxGeometry>
                </mxCell>
                <mxCell id="15" value="BLE / ESP-NOW" style="text;html=1;strokeColor=none;fillColor=none;align=center;verticalAlign=middle;whiteSpace=wrap;rounded=0;" vertex="1" parent="1">
                    <mxGeometry x="490" y="540" width="60" height="30" as="geometry"/>
                </mxCell>
                <mxCell id="16" value="" style="shape=flexArrow;endArrow=classic;html=1;entryX=1.021;entryY=0.608;entryDx=0;entryDy=0;entryPerimeter=0;" edge="1" parent="1" source="9" target="12">
                    <mxGeometry width="50" height="50" relative="1" as="geometry">
                        <mxPoint x="360" y="490" as="sourcePoint"/>
                        <mxPoint x="410" y="440" as="targetPoint"/>
                    </mxGeometry>
                </mxCell>
                <mxCell id="17" value="Lora" style="text;html=1;strokeColor=none;fillColor=none;align=center;verticalAlign=middle;whiteSpace=wrap;rounded=0;" vertex="1" parent="1">
                    <mxGeometry x="470" y="420" width="60" height="30" as="geometry"/>
                </mxCell>
                <mxCell id="20" value="Lora gateway" style="text;html=1;strokeColor=none;fillColor=none;align=center;verticalAlign=middle;whiteSpace=wrap;rounded=0;" vertex="1" parent="1">
                    <mxGeometry x="160" y="410" width="60" height="30" as="geometry"/>
                </mxCell>
                <mxCell id="21" value="ESP32C3" style="text;html=1;strokeColor=none;fillColor=none;align=center;verticalAlign=middle;whiteSpace=wrap;rounded=0;" vertex="1" parent="1">
                    <mxGeometry x="420" y="650" width="60" height="30" as="geometry"/>
                </mxCell>
                <mxCell id="22" value="" style="shape=flexArrow;endArrow=classic;html=1;exitX=0;exitY=0.5;exitDx=0;exitDy=0;" edge="1" parent="1" source="5">
                    <mxGeometry width="50" height="50" relative="1" as="geometry">
                        <mxPoint x="470" y="290" as="sourcePoint"/>
                        <mxPoint x="280" y="320" as="targetPoint"/>
                    </mxGeometry>
                </mxCell>
                <mxCell id="23" value="" style="shape=image;verticalLabelPosition=bottom;verticalAlign=top;imageAspect=0;aspect=fixed;image=data:image/png,iVBORw0KGgoAAAANSUhEUgAAAgAAAAIACAYAAAD0eNT6AAAACXBIWXMAAA/fAAAP3wHyuVZaAAAKvUlEQVR4nO3ZwW0bORiAUWqhQtxJvJ2kCx4tH9mFO4nTiTuZhYGctDkk2VnM2N97BdDET3n0iXPZtm0AAC1/OW8A6BEAABAkAAAgSAAAQJAAAIAgAQAAQQIAAIIEAAAECQAACBIAABAkAAAgSAAAQJAAAIAgAQAAQQIAAIIEAAAECQAACBIAABAkAAAgSAAAQJAAAIAgAQAAQQIAAIIEAAAECQAACBIAABAkAAAgSAAAQJAAAIAgAQAAQQIAAIIEAAAECQAACBIAABAkAAAgSAAAQJAAAIAgAQAAQQIAAIIEAAAECQAACBIAABAkAAAgSAAAQJAAAIAgAQAAQQIAAIIEAAAECQAACBIAABAkAAAgSAAAQJAAAIAgAQAAQQIAAIIEAAAECQAACBIAABAkAAAgSAAAQJAAAIAgAQAAQQIAAIIEAAAECQAACBIAABAkAAAgSAAAQJAAAIAgAQAAQQIAAIIEAAAECQAACBIAABAkAAAgSAAAQJAAAIAgAQAAQQIAAIIEAAAECQAACBIAABAkAAAgSAAAQJAAAIAgAQAAQQIAAIIEAAAECQAACBIAABAkAAAgSAAAQJAAAIAgAQAAQQIAAIIEAAAECQAACBIAABAkAAAgSAAAQNDVoXMma63HMcbjnluac972XG+ttet6Y4y3OefLXouttR7GGF/3Wu+Hlznn216LrbXe9/ew13rjY5zz65zzdec14Y8JAM7m/cv/aec97f0g33t/39+/YHdc7+F/2OP7F9duAfAjUL7suN74AOc8fswRTsErAAAIEgAAECQAACBIAABAkAAAgCABAABBAgAAggQAAAQJAAAIEgAAECQAACBIAABAkAAAgCABAABBAgAAggQAAAQJAAAIEgAAECQAACBIAABAkAAAgCABAABBAgAAggQAAAQJAAAIEgAAECQAACBIAABAkAAAgCABAABBAgAAgi7btjl3/mWt5YMBn8Sc8+IsuecGAACCBAAABAkAAAgSAAAQJAAAIEgAAECQAACAIAEAAEECAACCBAAABAkAAAgSAAAQJAAAIEgAAECQAACAIAEAAEECAACCBAAABAkAAAgSAAAQJAAAIEgAAECQAACAIAEAAEECAACCBAAABAkAAAgSAAAQJAAAIOiybZtzP5m11uMY4/HgXT2dbjDAn3o+eHKvc87Xg/fAnauBnNKjL2BgR2d4ngiAk/EKAACCBAAABAkAAAgSAAAQJAAAIEgAAECQAACAIAEAAEECAACCBAAABAkAAAgSAAAQJAAAIEgAAECQAACAIAEAAEECAACCrg6dz2rOeXG4/Fdrrc0Q+YzcAABAkBuAE5pz3sYYtyN35lcPfB5uw/gZNwAAECQAACBIAABAkAAAgCABAABBAgAAggQAAAQJAAAIEgAAECQAACBIAABAkAAAgCABAABBAgAAggQAAAQJAAAIEgAAEHR16PBr1lqbUZ3fnPNSnwH8CjcAABDkBuCE1lq3McZTfQ7APk5we/U857wdvAfuuAEAgCABAABBAgAAggQAAAQJAAAIEgAAECQAACBIAABAkAAAgCABAABBAgAAggQAAAQJAAAIEgAAECQAACBIAABAkAAAgCABAABBAgAAgq4O/ZTexhjfD97Yl5POBvh9Rz9P3g7++/yEADihOefLGOPlyJ2ttbazzgf4PXPORyPjnlcAABAkAAAgSAAAQJAAAIAgAQAAQQIAAIIEAAAECQAACBIAABAkAAAgSAAAQJAAAIAgAQAAQQIAAIIEAAAECQAACBIAABAkAAAg6OrQz2et9TDGeKjPAdjHWuvx4FG+zTnfDt4DdwTAOX0dYzzVhwDs5tvBo3weY9wO3gN3vAIAgCABAABBAgAAggQAAAQJAAAIEgAAECQAACBIAABAkAAAgCABAABBAgAAggQAAAQJAAAIEgAAECQAACBIAABAkAAAgCABAABBAgAAgq4O/ZRexhivB2/s20lnA/y+vw+e2dvBf5+fEAAnNOd8O/ofZq111vEAv2nOefQPCk7IKwAACBIAABAkAAAgSAAAQJAAAIAgAQAAQQIAAIIEAAAECQAACBIAABAkAAAgSAAAQJAAAIAgAQAAQQIAAIIEAAAECQAACBIAABB0dejns9b6Osb4Wp8DsI+11uvBo3yZc74cvAfuCIBzehhjfKkPAdjN0c+TowOEn/AKAACCBAAABAkAAAgSAAAQJAAAIEgAAECQAACAIAEAAEECAACCBAAABAkAAAgSAAAQJAAAIEgAAECQAACAIAEAAEECAACCBAAABAkAAAi6OvTzmXPexhi3Ize21tpOOh7gN805L2bGPTcAABDkBgB+kV9RwGfiBgAAggQAAAQJAAAIEgAAECQAACBIAABAkAAAgCABAABBAgAAggQAAAQJAAAIEgAAECQAACBIAABAkAAAgCABAABBAgAAgq4O/XzWWrcxxlN9DsA+1lrbwaN8nnPeDt4Dd9wAAECQGwA+rRP86gE4LTcAABAkAAAgSAAAQJAAAIAgAQAAQQIAAIIEAAAECQAACBIAABAkAAAgSAAAQJAAAIAgAQAAQQIAAIIEAAAECQAACBIAABB0dein9HqCTT2dYA/APp4PnuMZnmncuWzbZib8y1rLBwM+iTnnxVlyzysAAAgSAAAQJAAAIEgAAECQAACAIAEAAEECAACCBAAABAkAAAgSAAAQJAAAIEgAAECQAACAIAEAAEECAACCBAAABAkAAAgSAAAQJAAAIEgAAECQAACAIAEAAEECAACCBAAABAkAAAgSAAAQJAAAIEgAAECQAACAoMu2bc6d01hr3cYYT3vuZ8552XO9tdbe/zTf55yPey221npf69te6/3w95zzda/F1lrva33Za73xMc75ec5523lN+GNuAAAgSAAAQJAAAIAgAQAAQQIAAIIEAAAECQAACBIAABAkAAAgSAAAQJAAAIAgAQAAQQIAAIIEAAAECQAACBIAABAkAAAgSAAAQJAAAIAgAQAAQQIAAIIEAAAECQAACBIAABAkAAAgSAAAQJAAAIAgAQAAQQIAAIIEAAAECQAACLo6dE7m9QMcyPPO6739D+udfY8vH+Cs957hR/hsE3LZts15A0CMVwAAECQAACBIAABAkAAAgCABAABBAgAAggQAAAQJAAAIEgAAECQAACBIAABAkAAAgCABAABBAgAAggQAAAQJAAAIEgAAECQAACBIAABAkAAAgCABAABBAgAAggQAAAQJAAAIEgAAECQAACBIAABAkAAAgCABAABBAgAAggQAAAQJAAAIEgAAECQAACBIAABAkAAAgCABAABBAgAAggQAAAQJAAAIEgAAECQAACBIAABAkAAAgCABAABBAgAAggQAAAQJAAAIEgAAECQAACBIAABAkAAAgCABAABBAgAAggQAAAQJAAAIEgAAECQAACBIAABAkAAAgCABAABBAgAAggQAAAQJAAAIEgAAECQAACBIAABAkAAAgCABAABBAgAAggQAAAQJAAAIEgAAECQAACBIAABAkAAAgCABAABBAgAAggQAAAQJAAAIEgAAECQAACBIAABAkAAAgCABAABBAgAAggQAAAQJAAAIEgAAECQAACBIAABAkAAAgCABAABBAgAAggQAAAQJAAAIEgAAECQAACBIAABAkAAAgJoxxj+fJLQL3SHk7AAAAABJRU5ErkJggg==" vertex="1" parent="1">
                    <mxGeometry x="580" y="630" width="70" height="70" as="geometry"/>
                </mxCell>
                <mxCell id="24" value="" style="shape=image;verticalLabelPosition=bottom;verticalAlign=top;imageAspect=0;aspect=fixed;image=data:image/png,iVBORw0KGgoAAAANSUhEUgAAAgAAAAIACAYAAAD0eNT6AAAAGXRFWHRTb2Z0d2FyZQBBZG9iZSBJbWFnZVJlYWR5ccllPAAAA3ZpVFh0WE1MOmNvbS5hZG9iZS54bXAAAAAAADw/eHBhY2tldCBiZWdpbj0i77u/IiBpZD0iVzVNME1wQ2VoaUh6cmVTek5UY3prYzlkIj8+IDx4OnhtcG1ldGEgeG1sbnM6eD0iYWRvYmU6bnM6bWV0YS8iIHg6eG1wdGs9IkFkb2JlIFhNUCBDb3JlIDUuNi1jMTExIDc5LjE1ODMyNSwgMjAxNS8wOS8xMC0wMToxMDoyMCAgICAgICAgIj4gPHJkZjpSREYgeG1sbnM6cmRmPSJodHRwOi8vd3d3LnczLm9yZy8xOTk5LzAyLzIyLXJkZi1zeW50YXgtbnMjIj4gPHJkZjpEZXNjcmlwdGlvbiByZGY6YWJvdXQ9IiIgeG1sbnM6eG1wTU09Imh0dHA6Ly9ucy5hZG9iZS5jb20veGFwLzEuMC9tbS8iIHhtbG5zOnN0UmVmPSJodHRwOi8vbnMuYWRvYmUuY29tL3hhcC8xLjAvc1R5cGUvUmVzb3VyY2VSZWYjIiB4bWxuczp4bXA9Imh0dHA6Ly9ucy5hZG9iZS5jb20veGFwLzEuMC8iIHhtcE1NOk9yaWdpbmFsRG9jdW1lbnRJRD0ieG1wLmRpZDpmZTk1YzUwNS0xYzczLTAyNDQtOWE3OS0wYmI5MTIwYTNmY2EiIHhtcE1NOkRvY3VtZW50SUQ9InhtcC5kaWQ6OTdGRkNEQTBCRjVFMTFFNTg4NzBDMjFFNDcxNUZCNUUiIHhtcE1NOkluc3RhbmNlSUQ9InhtcC5paWQ6OTdGRkNEOUZCRjVFMTFFNTg4NzBDMjFFNDcxNUZCNUUiIHhtcDpDcmVhdG9yVG9vbD0iQWRvYmUgUGhvdG9zaG9wIENDIDIwMTUgKFdpbmRvd3MpIj4gPHhtcE1NOkRlcml2ZWRGcm9tIHN0UmVmOmluc3RhbmNlSUQ9InhtcC5paWQ6ZmU5NWM1MDUtMWM3My0wMjQ0LTlhNzktMGJiOTEyMGEzZmNhIiBzdFJlZjpkb2N1bWVudElEPSJ4bXAuZGlkOmZlOTVjNTA1LTFjNzMtMDI0NC05YTc5LTBiYjkxMjBhM2ZjYSIvPiA8L3JkZjpEZXNjcmlwdGlvbj4gPC9yZGY6UkRGPiA8L3g6eG1wbWV0YT4gPD94cGFja2V0IGVuZD0iciI/PgT3cRIAAB+6SURBVHja7N3fWRvJuujhZj1zP94RjBzB4AgsR2CIYEQEhjvugDvfgSNAjgAcAXIE4AisiWBYEbC6UGm2/BcwEqqv6n2fR4eZvc+Zg7qF+tfV1dUbNzc3HQDQlg0BAAACAAAQAACAAAAABAAAIAAAAAEAAAgAAEAAAAACAAAQAACAAAAABAAAIAAAAAEAAAgAAEAAAAACAAAEAAAgAAAAAQAACAAAQAAAAAIAABAAAIAAAAAEAAAgAAAAAQAACAAAQAAAAAIAABAAAIAAAAAEAAAIAABAAAAAAgAAEAAAgAAAAAQAACAAAAABAAAIAABAAAAAAgAAEAAAgAAAAAQAACAAAAABAAAIAAAQAACAAAAABAAAIAAAAAEAAAgAAEAAAAACAAAQAACAAAAABAAAIAAAAAEAAAgAAEAAAAACAAAQAAAgAGwFABAAAIAAAAAEAAAgAAAAAQAACAAAQAAAAAIAABAAAIAAAAAEAAAgAAAAAQAACAAAQAAAAAIAAASAAAAAAQAACAAAQAAAAAIAABAAAIAAAAAEAAAgAAAAAQAACAAAQAAAAAIAABAAAIAAAAAEQNQds7Gx1P/e27dvB/2P0cL/6I/+NfiF/9S0f/39g//d5Ov/u/v7+1N7E9rmOCMAWG8ADPsfF2t+W4uB8HEhKG4joY+FiT0PAoCn8ZtNwBMa/uCf55Ey/8er/nWdf/538d/7SLi2GQEEAHXavCMSJjkIPuU4SJcarmw2gPtzCaDUHVPnJYBVu42BhTC4MgcB1s9xRgAgANZlkoPgU44CowUgAJrnEgAtGHYLlxMWLiN8NFIACABoOwqmOQrSKMHEKAEgAKANg25hnYQ+CK4XRgkEAVAdcwBK3THmAJRmHgQfchBMbRK4H8cZAYAAqEkKgPOFEQLrE4AAEAAIgAbNY+Dc6AAIAAGAAGhTmi8w6V/vzR0AASAAEABtmuYY+NDHwLnNgQBAACAA2pPmCZyLAQQAAgABIAbeuUyAAEAAIADaNF2IganNgQBAAAgAAdCeNBrwvn+N3VqIAGCV/mMTQFHSo5CP+9c/fbSd9q8tmwQwAmAEwAhAm6YLowJTmwMjABgBgDYM+tdB//rch9yZUQHACIARACMARgVOzBXACABGAKC9UYH5XIFNmwQQANCWUf+67CPgon+NbA7gPlwCKHXHuATAr5v2r3edWwkphOOMEQDgaQy62a2EadLgYf96ZpMAAgDakQ78i/MEBjYJIACgLaM8IiAEAAEAQgAQAIAQAAQAIAQAAQAIAUAAAA2EgNsHQQAAjYaAdQRAAACNma8j8NkSwyAAgDZDIF0S+JyXlAYEANCQQf+6yA8d8vRBEABAY9IoQHr64LH5ASAAgPbsdrP5Abs2BQgAoC1pBCCNBFyaHwACAGhPmhNwYf0AiGPj5ubGVihxx2xsLPW/lydtHed/vepf/33Ef+6PbjYh7OszQRPDSK77197+/v7YpiBxnBEArDEAnlpeTnbwnTj4M/+7YKjfpH/t9CEwtSkEAAKARgLggbEwzP+Yfv6ew0Ag1OOoj4BDm0EAIAAQAA+Jg3kMpDiYX3oY2jLhpMtO6bLAxKYQAAgABMBjwmCQRwjS62UOg4EtU7yTPCJwbVMIAAQAAmBZUTC/bDDMUTAfPaAs0242N8BogABAACAAVhYFi6MEQ6MERgMQAAgAAdDuKMFwIQhMNFyvqzwacGVTCAAEAALgKYNg8FUQGCFYD3cKCAAEAAJgrUEwn0PwunO3wTpGA7atGyAAEAACgHXHQLpcsJVHB9JPEwpXzyqCAgABIAAoLggWY2Bgi6zUeTebG2CCoABAAAgAioqBdKngLzGwUtPO7YICAAEgACg8Bt50LhOsigmCAgABIAAoPgZSBKQJhCNbY6nSKMC2SwICAAEgACg9BOYTCNPIgLUGluM6R8DEphAACAABQIQYGOQQSKMCLhE8XrpL4MRmEAAIAAFApBhIEZAmDw5tjUdxl4AAQAAIAIwKNMoywgIAASAACBsC87kCB53bCX/FdY6Ac5tCACAABABRY2CYQ2BoazyYWwUFAAJAABA+BAY5BEa2xoOYFyAAEAACgGpCwDyBhzEvQAAgAAQA1YRAOvjv5hgQAnezXoAAQAAIAIRAw3Y8VVAAIAAEAEKgTSd9BOzZDAIAASAAEALtSaMAeyYHCgAEgABACLQnTQp8JQIEAAJAAFBjCAw6tw/eFQHuEBAACAABQNUhcNzNVhjkS9d5JEAECADHGTtGAFBtCAxzCHgc8bcRYPlgAeA4Y8cIAKoPgVEOAfMDvuQ2QQEgABAAVB8B84mCB7aGCBAACAABQHshMOh/nHYeOLTIWgECQAAgAGgmBNIEwXRZYGBr3Br3EbBjMwgAAYAAoIUIcFlABAgAAYAAoOEQ2MyjAUNbQwQIAAGAAKC9EJiPBrR+t4AIEAACgHoCIA/3pjO9Qff4677pPuqvF1K5ssxqFRGQPhsmCYoAASAAqCgA0hf6xRP9+ouBMO1ff+d/nqT/w3PajQYEkRYK2hG2AkAAIACWbx4CH3MoTI0kGA0ojIcICQABgAB4QvMRhKs8enBl1MBowDpHAvrP37ZPggAQAAiA9Z6NpdcnUWA04ImZEyAABAACoDCTHAXpMsLEUO3KQ+Cwa3fdABEgAAQAAqDwUYKJIFhpBKS7Sc66NlcRFAECQAAgAIIFwQeXDJb6eUrzAdLiQSMRgAAQAAiA0l3PY6CbTewyOvD4z9Woa/NRwyJAAAgABEDw0YH3OQamNscvf7bSJYE0QXCzsbd+1H9uDn0CBIAAQACIgZYjoNVLAmmhoLFPgAAQAAgAMdB6CIy69i4JiAABIAAQABWaLMSAOQP3+6y1eJfAK5NMBUA0/7EJ4KdSOKXr25/7A9tpDil+oj8QphGUF93/L/XcgrMcPmAEACMAFZv2r3fdbCa4UYGff+7S5YDdRt7udR4JuLLnjQAYAYA6DbrZde5/8qiAM78fjwbs9T928sGxdmnew2meEAkCACo36l+X/Zf+ZZ4Ax7cRME5nxo1EQIrBCxGAAIB2bOazvzRX4NAB4JsISMPiz7vZHRYtfBaO7XUEALRl0M0eljOfNDiwSf6NgOs8EjBu4O2O8vwHKJZJgKXuGJMAa5IOeEfWFPji89jK5EBrBHQmARoBgHaNjAh8MxownxxYO5NEEQCAEPgqAtKZ8XZX/+TAC/sbAQAIgS8j4Lyr/w6BNCH0zMRQBAAgBL6MgKscAdOK3+b8iYkgAIBvQqDZ2wcXlg+u+TbBrbSPfdwRAMDX5rcP7rb45hduE6w5Ag76/bvlo44AAL6WRgCO84JCQxFQJXcGUATrAJS6Y6wDwMykm91LPm3tjae5Ed3s8kiNbuc9tPIwKccZIwDAw6Vwa3J+QH9wTOsEjCt9e5YLRgAA95LmB1y2dv248ggYtTrfAwEAPMygm91PftbSbYOVR8Cx+QAIAOC+tvJoQDNnj5VHgEWCEADAvc3vFmhmmdmKIyDtP4sEIQCABxm2NBpQcQRsmQ+AAACMBrQZAeYDIAAAowGNRoD5AAgA4FGjAdUfSHIE1LZi4KAzHwABADxCulPgcwPrBtS4bHCaDzDyEUYAAI8ZDUgjAdWuOFfxswOOW35ENAIAWI7d/mByWesBZSECppXFm0sBCADg0dLs8mqXEs4RsN2/anq4zjA9A8JHFwEALOOsstpLAn0EXOWRgJoi4MCtgQgAYFl285oB1d0lkCNgr7K35VIAAgBYmmE3u0ugurPLPgLG/Y+dit7SpksBCABgmdIIwGWNt5zlCBhX9JZcCkAAAEt3WuO8gLxQ0HlN+8lHFQEALFut8wJqWi3QpQCWauPm5sZWKHHHbGws9b+X7wEf5S/D782SnvZnTNPv/L8b/ujLqJsNISe/53//+n9OPOnzsf29z0JUOWo+V/S5fJEnO4bhOCMAWGMArOlLdx4D6ecf3Wydc4FQvtuFdaIdZO74PN6ug1BLpPX75oUAQAAIgMhxkF5/5jAY2uvFRcBenkxXy+du1NVzHf2o3zeHAgABIABqOksb5igY5jBgvXYqi4A02bGGxyWnQHsR5VKN44wAQAD8ykhBCoGX+afboNbjpD/Q7FX0ubro6hhxmvT75ZUAQAAIgFaCYGshCIwQPJ1xvq2uls/RZSWfnzRhs/hbHR1nBAACYNlf5Js5CF4bHRABv/DZqWFSYLoU8Dw/DEkAIAAEQJMxMMgx8JcYWKl0trlT+gHnnp+ZUVfHpMDiL9E4zggABIAYqMPtU/cqiYAUAKMK9knRawM4zggABMC6YuBNDoKBLSICvvp8pPkAFxWEYtETAh1nBAACYN1f9vNRgS1bQwQsfC42cwREX6Cq2Fs2HWcEAAKgpFGBUY4BowIioJb5AMVOCHScEQAIgFK/+FMIDG2N5iPgrIs/OlTkCoGOMwIAAVDyl/8wh8DI1mgzAipaH+B5aSsEOs6UyeOAobt9dvwk3+P+vH+NbZEHu72OHvlxwjlealjn4NjHEQEADz8ITIXAoyLgNPj+n/Q/joLvh62fPMYb/uUSQKk7xiWAIuQJgwedSwMPEX7FwH6/X3axbw0s6pHBjjNGAMCIQBtGeYGdyLa72az6qDbzBFcwAmAEgCWOCKSD29DWuFOoZ9Z/Z1+nxwZHvp4+7WYrBK49ZBxnjABALSMCacW19LqyRX7qIPJZaL+fT/ofk8DbP8Xqro8hRgCMALCas8RRPkt8Zmv8UIhH1v5g/6aD6GXg/VvE4kCOM0YAoMYRgXE3mx9wYmv80Glebjfi/p12se8KeGYUACMARgBY/dni/DY4TyD8/pnoi9IWqHnAvk3PChja9kYAjAAA3ztbnN96tdfFnkG+qjPRs8ALBe0E3qdpmx/4CCIAYPUhkC4HpBCY2BpfCLtQUD57fhd424/yfAYQALDqA0a+W8BowJfSKnXHQffpYRf7zg+jAAgAMBqwVruBbw+MvMKhUQAEAKxxNICZ44h3BqR5Hl3sOz6MAiAAYI2jARYQij0pMN0WGPWyjlEABACs8QwyjQaMbY3blerOAu7DdPCPPJpjFIBb1gEodcdYB6B6VhH810l/UN0LuP8irw3w/CnXBXCcMQIAfHkmOe48UyBJkwK3Av7eRgEwAoARAB51JvksjwSMGt4MIVcKzLc0Rl1q98lGARxnjAAA3x8JuO5fO13bdwncTgoM+HuHnhDor08AAGWEQLpLYLtrd+Ggzf6M+jBavHVxHxb0JvDSzAgAqC4C0mNz07yAaaOb4KA/KA0DhlvE/eVJgQIAKOyAkiYFtrxeQMT1AaKuEPiXvzgBAJQVAdddu+sFpIP/abD9NeliLvc8CLwsM4/kLoBSd8yS7wLIq3+lP/Tfu2+fVz/Irx/5+ostHZw+5X+e5td1PnNlyfp9d9q1OWFrJ98qGWU/pb+ry4DbOS1V/XyV/x84zggA1hsAw/7HxRP86ikOrnIU/J3jYRrt9q4CDy6jLuijdB/5WQp1a2DgWHuVRzEEQEN+swlYsjR8O1z494P8xTgPg4/55yQPc3MP6Uy434ZdYxEwvxTwKtDvfBQ0AN50nlhpBAAjAE9omr90UhScCwIjAT+wl2faGwVYrZUtDOQ4UyaTAFmnQf6iTF+Y//RfnJdpZbWIj4l9ypGALvYz6X/FQbAn2KUFnSLGrOWBBQCsTTrwp/uSUwikIDgNukb8U0TAi66dBYNC3RWQR7LeBdzOWxYGEgBQypd+Gh04W4iBoc3y70Fm/ljhViJg2O//SIvWnATcN+lvTnALACgyBi76g8DntFxssCHhVUbAdkNv+SDKGWrgUQCXAQQAFGuQv6RSCJy1fokg37rVypyAaAsERRwFGBhpEwAQQTr4n+VRgd1Wr182NjFwK8oBKvAogOWBBQCEGhU4zqMChy2GQGMRYBRgtUYmAwoAiCZ9aaXLA/NJg4MGI2CvheCL8tjgwKMAI18nAgCiGuURgaZCIC+YM27grb4JtF8j7o83vkIEANQQApctXRroI2CngQhI+/I4yP6YBtwfAwtyCQCo5WAxv3Ngt5H3nC4F1P50xq1AM9aPjAIgAGDNZ435roFhzW80X3tOCwVNK9+nkUYBzgMGlsmAAgCqMuhmiwqd1Tw/IEdAWiio5tUCN/MDkiKINhnQyoACAKqVvtwua74skFcLrP32wOMIZ6p50aZJsG372teEAIBazS8LXNQ6GtAfeNLQ81Hl+zBKxL2PFsmW3RYAULthzaMBfQQcdvGuQT/EmyCjAOMu3rwMlwEEABgNCC5dCriqeN9FeZBNtFEASwMLAGhuNKCqM588KTBFQK2TAneDhNtJsO26aU0AAQCtjQakuwSOa3pTeVJgzcsFHwTYBynAxkYBEABQ/lnlZU2XBPJ16HGl+2sUZF9FuyXQPAABAE1Kw5+XlS0eVPNKgRFGAa6CbX9LAwsAaFa6JHBRy10CC/MBjAIYBbgvlwEEADQt3SVwWsMbyWehta4PEOGOgHRbZqQJmS4DCABo3ijPCwi/TnpeH2BiFGAt2/66i7U2g8sAAgDoZvMCalkvoNZbAyOMArgMgACAoBFwGf2sKD+prsZLAaPSR2nyZZhpoG3qMoAAALL55MDoEZAWp5lUuH8iTNqMNAow8GwAAQBUFgFdnZcCIjwjINozGowCCACgpgjIlwLeVbhftgJs90gRYB6AAAAqjIDDrr4FgiJMBvwQaHtu1nAHDAIARMC3antWwCDAg52sCYAAABGw9lGASVffswLeFL7No60J8NKfuQAA6hwJ2OvqmhA4DDB7PdJlACMAAgC4RwQMov3i+Yy0trUBDgrf5pEuAzyr7OFYAgBYSQScRZw0ldcGmFa0L7bcErhUAkAAAHdIlwHOgv7uNT0xsPhbArtYlwFe+9MWAMA9zpYiPkUwTwicVLQfSp8MGOkygNsBg/vNJmjO/Mv848L/7OqOL53hwj//mc+kBvnF/aW16T/lofVIjrp6hnvTQWszr8FfqhQBoyhh28VbyZBs4+bmxlYoccdsbIT4PfMs9xQC6efL/NNZwc+9ymfWYeTRi1El2/+k3/57BW/rdJkiyiWjcb8t77xM5DhjBIAK5TOpq8WzgBwFwxwEQ0HwjTQp8EVeAjbSKEAtAZDeR8mLHUWKw6E/ZyMANDoCcM8zmvQlkSYMbXUuG8xd9QHwwijA2mzn6+2lbuuzLs699s/vilnHmTKZBMhTjBJM0pBr/3re/2s66KVr4NeNb5Z0Lfo42O9c07oApT/QJtLdAEYBBADcKwaucgz8Xze7xWzS8ObYDbBG/eK+S2d540q2felrAkT6u7AssACABx9Q0gSiV/0/Pu/qW3v+vk6D3UpV0yjAVsF/Gym2ojyV0QiAAIBf/7LLM4nnIdDS5YHblQKNAqxF6ZcBoowCDCIud40AoMwQeNHYiEBaJGjXKMBatnvJB65I8wA2OwQALHlEoJVFRg6inEXlUYBJJdu95MsAaRtHGQ0zD0AAwNJDYLv/xzRPYFr5202XAiItFVzLKIDLAMsx9I0lAGAlZ0L5FsKjyt9qGpIeRdknlURZ6evZf4yyHX1TCQBY5UHnsJvND7iq+G0eB7oroJYgK/lWzCgjAPMFvxAAsLIImK+gV+toQDr4HwfZF+Oujjs2Xpf8eQ+0jQWAAIAnGw141dV5y+Ao0NnUuIYRgMJHXaJMhP3TN5MAgKeKgEk3u1OgxksCUZYJflfJ9i45uMwDQADAdyLgOl8SGFf21jYjTAis6JbA1wX/blECdxBsVUsBYBNQSQikdQN2KntbB0G+UN8bAVjpZzvSPACjAAIA1vJFOa4sAgb9azfIdo8+FyOdvZZ88JoIKQQA3H0wetHVMznwTZBRgBpWbCz54BVlHoCJgAIA1hoBaci0ljsEnkUYBejqmAxoHsDjuQQgAEAEtDQKkLf31AjAyrbvJMg2NBFQAIAIaHAUIPxlgMLXX4gSAUYBBAAUFQFGAVavhssAJQeAywAIAPiFCIh+d0DxowB5TYDoizKV/FjbT0G24R++dQQAlHRwGvc/9qKPAgT4HT8YATAC4BtHAEBpEXDSxV4x8FmA1QHNA1jd51cAIADgEV+iO13sYeo3hW9fdwOs1iRIqLoTQABAkba7uHcGbAZ4UmD0UYCSF7MxCoAAgEecpaYz1MiTAv8q/PczD2B1/hYACAB4XASks9SToL/+qOQh1rxoTeS1F9IQ9sAIwOO2oW8ZAQAlR8BeF3c+wKjw329iFGBlcRXByw4BAIWLeimg9MsAH4N/LkqeBzA1AoAAgMefUaURgKOAv/pm4Y+vjT4RsORtO7X9EACwHCddzFvXih0FyBMtp4E/E8OCf7cQoysFz6NAAMC/B6s0YS3iKoFbhf9+k8ifi4IPYFHCSgAIAAgRAecBD1iDwi8DRJ8HUOq2ndp+CABYroijACVPBoz+YKBN2/VRTAQUABBmFCB9sY6D/dpbhW/PyOsB/Fnodr22/RAAsHzR7ggYFD7ZahL4s2C7GgEQANDQKMDUKMBSfQr8cSj5GnaEUYBBR9F+swnak88Yh/kP9GUu9R992U3zKw3npnXIJ4EeS/qYUYBRoN/3dVfussbpTPUg8N/KZqGf909d+XeBCAABQClfZN1swtjWA/8wB/k1XPhvpbOPNGv+Q549X90oQP8ex4EiYFjw7xY9Fksdxg4xDyA9syLQnIXmuARQ/4E/PTjmc/+Pl/1rd0lV/iwfHM/Sf7t/HVb4/O/3wfZzkRGQv/yngT8HpcaVxwIjALjzwH/arXYoLv230xBvVSGQH7oS6ezVKMBq/G4EAAFAmDPBJzrwf29UYB4Cu5VszneBfteSn75mIuDyA9UIAI9mDkA9B/75AXjdB9/0exz3v0+amLYd/Ppfmt9w3MW4nckIwGoMOh77fYARAFZ48E9fUhcFHPy/PiB9LvXa9D3PsuaTHaN8Dkrd1lMBsBIT334IgLYP/mmILU3wK3GoLdX/RZqPEHgTfwj0uxquXs3fmLPYX/fSJhAArOaLaZTP/Ev/gjpNEwSDjgKkEQBLrz5e5AjwUCAEAEUd/NP9/KddnGtsB1EjoItzGcDKdW352yZAALR38N/MB/9oDoJeDohyGcCjgVdj6Funys+kALAJwh38b6+rd3Fn154GnBg4CfT5cLBqxzTA72j+hABgic4q+KM6izSxKt8NECUCBiJq6f4QAAgA1n12d9jVMRz5LIdMJFGGsAf+UmxTEAB1HfzTl9BBRW9pmCcyRhHlDLbI267y0sosV5QHAg3tKgHA45zW+J6iXApwADMCUOBn8squQQDUf/afCrrGik4H/0jPDYjwhVvy52QqAEAA8DAHFb+3N4EmBDrjajMAQACwlrP/za7u+5DTwX8U5Hf9FOQzM/SXAwiACs6QvUcjAEYARNUPTAJsPkEqAPiFL510drzVwFsd5JEOB7Albc9Cfy9L14IA4AHl3MpKWn+V/gvu7+8LAEAA8CReN/Reo4x0uAwACACeZASgFYO82FHpIiy+8nuhv9fUnzQIAO6Qr/8PGnvbEeYBXNuOTQaAh9ogAHAwbPw9f/LR9PcIAoBVGjb4nv+02+FBPtoECABqYJgVQAA0r8Wz4YHdDiAAnA0LgBK5DRAQANCga5sAEAAAgACABrgdDBAArFSL15onAX5HdyoAAoCV+q9NAIAAaM/UewbuYPEsBICDYRUiLLP7u4+mv8eCuCSFAKjN/v7+pMG3HWHeQ4RJgFN/QbYpCIDYmoqARqNnFf4u9Pca2jUgALiflh70cR7k93QbICAAcFBsMHZccwWq8JtNUK79/f2rt2/fTrs2HpIzDvJ7vgrwO14VvI8nQT+fpW7TvQBROvVtXqaNm5sbW6HEHbOxcfuzD4Dd/sdx5W/3vI+dbXsd6uQ4UyaXAGKcGdf+AJp3djOAAGBBf2Z8XfkBcmL2P4AA4PtOKh4FOLJ7AQQAbY0COPsHEADcEQGHXV1PCExRs2PPAggA7lbTAfOoj5qpXQogALh7FCCNAOxV8FbSbX8n9iiAAOD+EZAOnOPAbyFFjKF/AAHAL9jrYs4HSNf9t/OkRgAEAA8cBUgH0FfBIuD2d3bdH0AA0E4EzA/+V/YcQBk8C6DUHZOfBXAfb9++Pe1/jAp9K1f54G/YHxrlOGMEgNWNBqRJdSXeHTB28AcwAsCKRgAWRgI2+x9pNGBzzb/+7SI//YH/3J4EHGcEACsOgIUQSI8QPujW85zwdJvikbN+QAAIAJ44AHIEpIN/CoE3TxQC487qfoAAEACsNwC+CoGtHALLvjSQDvbv08HfgR8QAAKAggLgqxgY5Bh42b+GvzgyMOlfH7vZcr5u6wMEgACg9AD4QRAMcgz8TDrQTx3wAQEgAAAAAQAACAAAQAAAAAIAABAAAIAAAAAEAAAgAAAAAQAACAAAQAAAAAIAABAAACAAAAABAAAIAABAAAAAAgAAEAAAgAAAAAQAACAAAAABAAAIAABAAAAAAgAAEAAAgAAAAAQAACAAAEAAAAACAAAQAACAAAAABAAAIAAAAAEAAAgAAEAAAAACAAAQAACAAAAABAAAIAAAAAEAAAgAAEAAAIAAEAAAIAAAAAEAAAgAAEAAAAACAAAQAACAAAAABAAAIAAAAAEAAAgAAEAAAAACAAAQAACAAAAABAAAIAAAQAAAAAIAABAAAIAAAAAEAAAgAAAAAQAACAAAQAAAAAIAABAAAIAAAAAEAAAgAAAAAQAACAAAQAAAgAAAAAQAACAAAAABAAAIAABAAAAAAgAAEAAAgAAAAAQAACAAAAABAAAIAABAAAAAAgAAEAAAgAAAAAEAAAgAAKBm/xNgADootqjJHZs1AAAAAElFTkSuQmCC;rotation=-90;" vertex="1" parent="1">
                    <mxGeometry x="576.5" y="570" width="67" height="67" as="geometry"/>
                </mxCell>
                <mxCell id="25" value="" style="endArrow=classic;html=1;exitX=1;exitY=0.25;exitDx=0;exitDy=0;entryX=0.857;entryY=0.986;entryDx=0;entryDy=0;entryPerimeter=0;" edge="1" source="24" parent="1" target="8">
                    <mxGeometry width="50" height="50" relative="1" as="geometry">
                        <mxPoint x="556" y="510" as="sourcePoint"/>
                        <mxPoint x="708.1084337349398" y="532" as="targetPoint"/>
                    </mxGeometry>
                </mxCell>
                <mxCell id="26" value="ESP32C3" style="text;html=1;strokeColor=none;fillColor=none;align=center;verticalAlign=middle;whiteSpace=wrap;rounded=0;" vertex="1" parent="1">
                    <mxGeometry x="643.5" y="660" width="60" height="30" as="geometry"/>
                </mxCell>
                <mxCell id="28" value="1~3km&lt;br&gt;" style="text;html=1;strokeColor=none;fillColor=none;align=center;verticalAlign=middle;whiteSpace=wrap;rounded=0;" vertex="1" parent="1">
                    <mxGeometry x="340" y="340" width="60" height="30" as="geometry"/>
                </mxCell>
                <mxCell id="29" value="100m~300m" style="text;html=1;strokeColor=none;fillColor=none;align=center;verticalAlign=middle;whiteSpace=wrap;rounded=0;" vertex="1" parent="1">
                    <mxGeometry x="600" y="530" width="60" height="30" as="geometry"/>
                </mxCell>
            </root>
        </mxGraphModel>
    </diagram>
</mxfile>